<svg version="1.1" id="Layer_1" xmlns="http://www.w3.org/2000/svg" xmlns:xlink="http://www.w3.org/1999/xlink" x="0px" y="0px"
	 width="100%" viewBox="0 0 1900 400" enable-background="new 0 0 1900 400" xml:space="preserve">
<path fill="#000000" opacity="1.000000" stroke="none" 
	d="
M453.000000,1.000000 
	C935.607056,1.000000 1418.214111,1.000000 1900.910645,1.000000 
	C1900.910645,134.257202 1900.910645,267.514465 1900.910645,401.000000 
	C1418.635742,401.000000 936.271545,401.000000 453.453613,400.531342 
	C453.000000,267.041779 453.000000,134.020889 453.000000,1.000000 
M1367.552246,310.003326 
	C1371.115234,309.095032 1374.816162,308.538055 1378.211548,307.203308 
	C1384.716919,304.645905 1388.780640,298.575653 1387.881958,293.555481 
	C1386.488525,285.770905 1381.882568,281.642853 1373.873413,280.999969 
	C1368.133545,280.539246 1362.532715,276.136139 1362.117432,270.565063 
	C1361.114258,257.104492 1360.481934,243.606430 1360.182251,230.112778 
	C1360.131104,227.806686 1361.914795,224.178024 1363.803589,223.359695 
	C1368.762451,221.211304 1374.092041,221.595657 1379.328857,223.741531 
	C1386.814331,226.808701 1389.057861,232.807846 1390.140381,240.134109 
	C1390.741455,244.202560 1391.895264,248.745178 1394.343750,251.860931 
	C1398.540039,257.201080 1409.331665,253.989304 1413.031982,248.251846 
	C1419.900146,237.602966 1421.091675,225.527924 1421.855103,213.469757 
	C1422.311035,206.271210 1421.193970,198.984879 1421.037964,191.732544 
	C1420.870728,183.962952 1418.691406,176.809128 1414.986328,170.083984 
	C1412.088135,164.823395 1406.645020,162.504761 1400.730469,164.011856 
	C1394.027466,165.719864 1391.515381,170.963791 1389.974487,177.047241 
	C1388.795410,181.702728 1388.148560,187.509995 1382.618408,188.553391 
	C1377.022827,189.609116 1371.006592,189.285385 1365.315063,188.520782 
	C1363.328369,188.253891 1360.347168,184.951584 1360.233276,182.901428 
	C1359.569702,170.958038 1360.790649,159.127609 1363.936890,147.503571 
	C1365.197632,142.845993 1368.715088,141.176651 1372.535645,141.142517 
	C1382.447510,141.053940 1392.405151,141.235321 1402.269897,142.130814 
	C1411.575562,142.975555 1420.235229,146.050583 1426.809082,153.308075 
	C1430.348267,157.215073 1434.215454,160.864700 1437.413208,165.030701 
	C1441.466064,170.310837 1446.968262,171.211884 1452.464111,169.650574 
	C1458.131226,168.040619 1462.116699,163.796173 1462.992432,157.485001 
	C1463.549927,153.468353 1463.998169,149.436523 1464.358154,146.522141 
	C1467.089966,149.039108 1469.908813,152.113602 1473.198120,154.553848 
	C1477.995972,158.113083 1482.822510,161.714859 1483.922241,167.897079 
	C1485.313477,175.718384 1486.904297,183.671890 1486.834839,191.554520 
	C1486.609009,217.221115 1485.857056,242.888641 1484.883911,268.539734 
	C1484.589966,276.286285 1482.078125,283.155243 1473.371094,286.105530 
	C1468.547607,287.739929 1466.127930,293.180328 1468.351318,297.401764 
	C1470.297485,301.096588 1473.339233,304.662842 1476.762573,307.038605 
	C1484.067383,312.108215 1492.978516,312.417542 1501.445801,312.846436 
	C1513.411377,313.452545 1525.455811,313.466064 1537.417725,312.825073 
	C1544.585815,312.440979 1551.907104,311.062897 1558.712036,308.791077 
	C1566.142944,306.310333 1571.833740,297.894531 1566.923828,290.528137 
	C1565.296875,288.087433 1561.793335,286.984070 1559.593140,284.817200 
	C1556.823486,282.089478 1553.272583,279.252136 1552.291748,275.823334 
	C1550.834106,270.727509 1551.013916,265.069550 1551.052612,259.654816 
	C1551.278442,228.077759 1551.666626,196.501846 1552.000488,164.925552 
	C1552.007568,164.259232 1551.990479,163.590775 1552.037354,162.927017 
	C1553.020020,149.007446 1554.315308,135.100342 1554.861572,121.163849 
	C1555.108643,114.856445 1551.277954,110.697403 1545.039551,110.139656 
	C1539.883667,109.678688 1534.579834,110.475914 1529.375122,111.029671 
	C1514.093994,112.655525 1499.059937,115.583115 1484.662109,121.053917 
	C1475.124512,124.677948 1465.637329,128.678452 1463.382324,141.810577 
	C1462.009521,129.196381 1456.723755,119.838570 1449.761597,111.442490 
	C1446.780640,107.847702 1442.398315,106.377045 1437.417358,106.966759 
	C1427.687866,108.118660 1417.929810,109.809418 1408.178223,109.846550 
	C1380.602417,109.951569 1353.022949,109.388840 1325.446655,108.975624 
	C1313.029053,108.789551 1300.614258,108.088440 1288.200806,108.150414 
	C1284.510742,108.168831 1280.575562,109.463356 1277.203613,111.101440 
	C1272.024780,113.617386 1268.674072,117.841225 1269.005127,124.088341 
	C1269.299316,129.641312 1273.136963,132.194061 1277.619751,134.215485 
	C1279.087402,134.877350 1280.815308,135.376389 1281.858765,136.483078 
	C1284.425293,139.204971 1287.762329,141.895782 1288.792358,145.218262 
	C1290.636230,151.165482 1291.914307,157.577698 1291.848633,163.778793 
	C1291.507690,195.942505 1290.817993,228.105255 1289.899658,260.258331 
	C1289.651733,268.937225 1287.221924,276.924469 1277.868042,280.657074 
	C1269.023071,284.186584 1266.782471,287.487976 1267.000000,295.736969 
	C1267.154297,301.587128 1272.285645,307.968964 1279.321045,309.886536 
	C1284.900513,311.407318 1290.731689,312.833191 1296.454956,312.848358 
	C1316.699585,312.902039 1336.947754,312.409027 1357.189575,311.917511 
	C1360.362549,311.840424 1363.509521,310.695862 1367.552246,310.003326 
M653.249878,260.999908 
	C649.338745,260.669281 645.426941,260.346924 641.516663,260.006622 
	C623.658569,258.452515 610.587830,248.827744 601.268738,234.387344 
	C589.591614,216.293137 585.236084,196.102448 589.187378,174.832550 
	C591.233643,163.817337 596.307739,153.895721 608.192749,150.002029 
	C624.866272,144.539536 639.331970,149.458832 652.470947,159.984253 
	C660.846741,166.693970 665.503357,176.116913 670.560242,185.175919 
	C676.533936,195.877106 683.543091,199.191605 694.142456,197.805862 
	C706.830933,196.147003 714.173157,189.736252 716.736938,178.379166 
	C721.005859,159.468018 717.067017,141.578140 705.282532,125.903778 
	C701.072083,120.303505 695.618835,116.668480 687.843811,117.918030 
	C681.498352,118.937828 675.309021,119.814484 668.840027,116.578789 
	C647.347107,105.828278 624.651733,103.027771 601.051086,107.988388 
	C578.316956,112.766891 558.466370,123.380249 542.258240,139.696136 
	C529.581360,152.457336 520.243042,167.682098 515.651672,185.590897 
	C512.481140,197.957718 512.036865,210.502197 513.313171,222.825684 
	C514.790344,237.088806 520.259399,250.379501 527.895386,262.769562 
	C537.674927,278.637604 550.320618,291.309296 566.838623,299.961487 
	C585.558838,309.767181 605.352478,314.909485 626.684021,314.104584 
	C637.845215,313.683380 648.447815,311.450043 658.870544,307.641418 
	C668.325745,304.186340 677.926697,301.132050 687.430847,297.807861 
	C689.988403,296.913300 692.921082,296.230133 694.839783,294.510651 
	C706.521301,284.042206 713.406738,271.071777 712.832520,255.115067 
	C712.640869,249.791199 710.033081,244.521851 704.598206,242.366974 
	C699.039490,240.163040 694.810974,243.401154 690.448181,246.814957 
	C685.823425,250.433777 680.659058,253.774490 675.198303,255.808273 
	C668.480530,258.310242 661.212402,259.334778 653.249878,260.999908 
M979.017029,219.007385 
	C979.320984,218.442932 979.640320,217.886169 979.926697,217.312927 
	C985.241821,206.674057 997.658447,204.569229 1005.666443,213.294159 
	C1010.993042,219.097702 1011.533020,226.982758 1011.781189,234.196564 
	C1012.224548,247.081818 1011.687500,260.036743 1010.827576,272.913605 
	C1010.473755,278.211731 1009.020264,283.356873 1004.921997,287.883820 
	C996.999573,296.634888 998.506409,305.869171 1008.023499,309.351593 
	C1013.396973,311.317780 1019.265381,312.558411 1024.974976,312.843842 
	C1035.778809,313.383972 1046.678467,313.638428 1057.443726,312.797791 
	C1066.044312,312.126221 1074.782593,310.478088 1082.940186,307.724243 
	C1089.633179,305.464844 1094.241577,294.146088 1087.327393,287.528046 
	C1083.044067,283.428101 1078.250366,279.066956 1077.963257,272.132141 
	C1077.424683,259.125275 1076.715576,246.124786 1075.984619,233.126846 
	C1075.394043,222.627914 1075.077026,212.089188 1073.869019,201.657211 
	C1072.918701,193.448898 1070.256836,185.655670 1064.066772,179.544220 
	C1053.260010,168.874863 1040.299683,164.764252 1025.191284,164.819473 
	C1009.456421,164.876999 997.799561,171.219940 988.559998,183.576263 
	C986.820923,185.902054 982.747131,187.835403 979.903137,187.647079 
	C976.150513,187.398621 977.321167,183.151138 976.932373,180.294983 
	C976.419434,176.527283 976.289734,172.313202 974.450439,169.205200 
	C970.992371,163.361847 964.694275,164.372498 959.254944,165.435638 
	C952.030945,166.847656 944.805176,168.636673 937.879333,171.103790 
	C925.538879,175.499725 913.108459,179.865097 901.304565,185.480927 
	C890.360168,190.687836 893.334167,202.016571 901.885925,206.803848 
	C908.652710,210.591904 911.271423,215.594452 911.039124,222.961990 
	C910.574219,237.706802 910.306946,252.458145 910.009766,267.207825 
	C909.829529,276.151733 907.125061,283.703705 899.331299,289.019165 
	C896.432800,290.995972 895.536194,294.159729 896.334656,297.897247 
	C897.794922,304.732880 902.547180,308.612244 908.626831,309.815063 
	C918.790771,311.825806 929.157532,313.023834 939.495789,313.857727 
	C945.181519,314.316376 951.067993,313.832184 956.712097,312.876221 
	C964.116272,311.622131 971.545959,310.002289 978.647644,307.601868 
	C988.889343,304.140106 989.202087,294.076416 983.965942,287.564240 
	C978.680481,280.990753 976.991943,273.267700 977.121765,265.312103 
	C977.369019,250.153427 978.334045,235.006454 979.017029,219.007385 
M1829.454346,207.035538 
	C1830.258667,206.194443 1831.202393,205.447601 1831.844727,204.497131 
	C1836.436279,197.702484 1841.459351,191.705475 1849.582153,188.504013 
	C1853.191284,187.081589 1857.651123,185.219986 1858.121338,179.553787 
	C1858.776733,171.655945 1852.857788,167.156494 1847.237915,166.101547 
	C1836.185181,164.026733 1825.033203,164.366180 1813.905273,165.982117 
	C1801.446533,167.791367 1797.329590,176.439072 1804.226440,186.696472 
	C1806.347290,189.850571 1806.873291,193.068970 1804.863037,196.259491 
	C1802.885254,199.398575 1800.758179,202.551468 1798.149170,205.148468 
	C1796.307373,206.981934 1793.960938,209.077454 1790.751587,206.339828 
	C1783.376587,200.048599 1781.383057,193.712006 1786.164917,185.698502 
	C1791.377930,176.962357 1786.100708,169.689285 1778.550903,168.116379 
	C1771.277710,166.601059 1763.824951,165.273804 1756.430786,165.157471 
	C1742.695557,164.941391 1728.921021,165.283524 1715.211182,166.154297 
	C1707.866821,166.620758 1700.419312,168.028687 1693.410522,170.249588 
	C1689.222046,171.576797 1684.366333,174.495529 1682.328613,178.116043 
	C1678.503906,184.911453 1682.958618,191.253143 1691.536011,194.112411 
	C1696.753418,195.851639 1702.739258,197.615143 1706.364136,201.333038 
	C1714.750977,209.935410 1722.004883,219.659988 1729.451050,229.139359 
	C1730.380493,230.322540 1730.456421,233.241272 1729.642334,234.564957 
	C1721.129517,248.405106 1712.187500,261.981995 1703.719482,275.848724 
	C1699.272461,283.130920 1693.826538,288.351624 1684.984863,289.590057 
	C1680.693115,290.191193 1678.254883,293.228943 1678.006470,297.698944 
	C1677.597168,305.067902 1679.978271,308.935303 1687.433594,310.910339 
	C1700.817017,314.455750 1714.506714,314.168640 1727.900879,311.433868 
	C1740.884033,308.783020 1742.148804,298.100433 1734.812866,289.977356 
	C1733.285889,288.286530 1733.097534,284.361389 1733.787598,281.882080 
	C1736.051025,273.750641 1741.080322,267.125946 1747.215820,261.481445 
	C1748.253540,260.526794 1751.769653,260.423798 1752.517700,261.304993 
	C1756.480835,265.973969 1760.390137,270.818665 1763.407104,276.120789 
	C1765.946899,280.584106 1763.978882,285.735168 1759.154541,287.861725 
	C1754.311646,289.996490 1752.815186,293.260498 1752.915405,298.231354 
	C1753.015137,303.189484 1755.817749,305.739594 1759.572144,308.206055 
	C1765.906982,312.367889 1773.165527,312.584137 1780.136475,312.836456 
	C1794.943115,313.372284 1809.801514,313.449951 1824.600830,312.822113 
	C1832.770630,312.475555 1841.000122,310.848694 1848.942993,308.794647 
	C1854.183838,307.439392 1858.250488,303.489594 1858.935913,297.595367 
	C1859.700562,291.019836 1857.529541,287.428253 1850.686035,284.351105 
	C1843.837891,281.271881 1838.944336,276.194214 1834.747803,270.278656 
	C1827.649292,260.272064 1820.806152,250.080933 1813.555908,240.187027 
	C1810.818726,236.451797 1811.134399,233.366486 1813.583984,229.884079 
	C1818.777588,222.500793 1823.887207,215.058380 1829.454346,207.035538 
M1105.972168,249.544098 
	C1091.816162,265.379059 1094.094238,289.477051 1109.736084,302.763519 
	C1126.527710,317.026398 1146.522461,317.431702 1166.613770,309.903046 
	C1172.240845,307.794434 1177.285889,304.118469 1182.568481,301.110077 
	C1185.352051,299.524963 1187.632690,299.582428 1189.856567,302.275238 
	C1197.279907,311.264221 1206.935913,314.283661 1218.496338,314.180511 
	C1232.725098,314.053497 1252.890259,302.209259 1258.228638,287.218994 
	C1260.768433,280.087433 1262.665771,274.304047 1251.285645,272.841980 
	C1249.611938,272.626984 1247.240601,270.718262 1246.817749,269.153809 
	C1245.187256,263.121429 1243.460327,256.948792 1243.148682,250.759003 
	C1242.365723,235.206497 1242.581543,219.605667 1241.922852,204.044296 
	C1241.380127,191.224426 1234.388794,181.869247 1224.025391,175.059341 
	C1210.252808,166.009186 1194.948486,163.412720 1178.563110,163.790955 
	C1163.669067,164.134750 1149.739136,167.618958 1136.166138,173.075760 
	C1125.157593,177.501541 1115.203491,183.720139 1108.650391,193.963486 
	C1103.371582,202.214935 1104.792725,216.361877 1116.790039,219.418884 
	C1125.602173,221.664261 1137.740723,217.077560 1144.097534,208.726669 
	C1148.357056,203.131073 1153.124634,197.906448 1157.861328,192.694366 
	C1162.656738,187.417786 1173.635132,188.912628 1176.233643,196.158066 
	C1179.044678,203.996048 1178.970459,211.838669 1178.991699,219.820084 
	C1179.004883,224.795746 1176.951904,226.688400 1171.911255,227.032089 
	C1163.908203,227.577744 1155.896484,228.132156 1147.929199,229.040329 
	C1131.824585,230.876053 1117.674927,236.942764 1105.972168,249.544098 
M746.442383,308.042938 
	C747.053528,308.602631 747.570068,309.418060 748.289673,309.684174 
	C761.933594,314.729279 775.967957,316.255249 789.903564,311.832428 
	C797.126892,309.539917 803.923340,305.594421 810.507019,301.708588 
	C814.555542,299.319153 816.849976,300.651917 819.847290,303.204803 
	C823.626160,306.423523 827.472351,310.174042 831.974976,311.820190 
	C846.678833,317.195953 860.279663,313.736725 872.720520,304.771851 
	C879.304138,300.027649 884.650391,294.325134 887.157166,286.360870 
	C889.863037,277.764099 888.404541,275.561676 879.954346,272.760803 
	C877.534851,271.958862 875.206360,268.905609 874.184021,266.346283 
	C872.782654,262.837860 872.200500,258.829285 872.091492,255.011536 
	C871.815735,245.352219 872.125610,235.677597 871.958862,226.013290 
	C871.833801,218.762741 872.122986,211.366623 870.766724,204.316422 
	C869.523193,197.852676 867.639160,190.752014 863.746155,185.696365 
	C850.456055,168.437561 830.980652,163.367584 810.531738,163.417603 
	C798.914429,163.445999 787.010803,166.004318 775.768250,169.260452 
	C761.850647,173.291321 748.204834,178.884216 739.208374,191.375366 
	C732.972900,200.032990 731.720032,209.300674 739.923706,216.507736 
	C745.311584,221.241058 756.988831,221.988846 763.935974,216.168686 
	C771.085938,210.178665 776.459900,202.114853 783.267517,195.649796 
	C786.467346,192.610977 791.059998,189.869598 795.288269,189.401093 
	C799.811096,188.899902 804.091431,192.430496 804.952271,197.392502 
	C806.362915,205.523346 807.328674,213.775269 807.668945,222.009735 
	C807.734375,223.593063 804.278076,226.287857 802.062622,226.795715 
	C797.635437,227.810593 792.939758,227.980606 788.359741,227.941849 
	C773.744751,227.818207 760.230286,231.541519 747.612122,238.814880 
	C733.227783,247.106339 723.755188,260.805542 725.913574,278.042877 
	C727.593079,291.455322 734.237488,301.198639 746.442383,308.042938 
M1585.607178,207.965454 
	C1587.404175,210.290726 1590.368164,212.431915 1590.769775,214.977280 
	C1591.790894,221.451523 1591.834106,228.103378 1591.958740,234.689987 
	C1592.125488,243.515594 1591.896729,252.348251 1592.026978,261.175079 
	C1592.178833,271.474854 1588.399170,279.645508 1579.872925,285.668488 
	C1572.011841,291.221405 1572.497314,300.613129 1580.503906,306.154327 
	C1588.986816,312.025208 1598.971924,312.229095 1608.429688,312.723846 
	C1622.450806,313.457336 1636.597412,312.746674 1650.631836,311.790375 
	C1656.052979,311.420990 1661.659058,309.385498 1666.577271,306.910004 
	C1677.443115,301.440857 1678.359131,290.371582 1668.663452,283.285614 
	C1661.747070,278.230835 1658.544800,271.839783 1658.962646,263.365814 
	C1659.175781,259.044373 1659.000000,254.703766 1659.000000,250.371826 
	C1659.000000,225.546448 1659.023315,200.721039 1658.987061,175.895706 
	C1658.974854,167.457962 1656.405762,164.221542 1648.346069,165.182236 
	C1636.182007,166.632172 1624.010986,168.684647 1612.127808,171.630356 
	C1601.766846,174.198792 1591.686401,178.065292 1581.709961,181.944611 
	C1577.230591,183.686371 1574.227417,187.409454 1573.962158,192.778702 
	C1573.672607,198.639374 1576.011230,202.683777 1581.386841,205.077393 
	C1582.696655,205.660660 1583.809326,206.686600 1585.607178,207.965454 
M1654.988892,137.136993 
	C1660.999634,123.197510 1654.214600,113.481163 1641.071167,111.253365 
	C1632.992554,109.884041 1624.412231,110.267067 1616.201782,111.173080 
	C1604.643066,112.448601 1593.807739,116.341827 1583.962402,122.931442 
	C1575.486938,128.604263 1574.014526,142.634689 1581.314941,148.911911 
	C1586.295288,153.194290 1591.620728,156.219925 1598.340942,155.979736 
	C1605.088989,155.738571 1611.927124,155.934158 1618.555664,154.874542 
	C1632.138428,152.703308 1645.464844,149.519928 1654.988892,137.136993 
z"/>
<path fill="#000B25" opacity="1.000000" stroke="none" 
	d="
M417.000000,401.000000 
	C392.645782,401.000000 368.291534,401.000000 343.441711,400.531952 
	C342.940399,395.904572 342.976379,391.744720 342.920837,387.586060 
	C342.774353,376.623444 342.588135,365.661346 342.579132,354.380371 
	C338.268066,344.337341 333.795563,334.613037 329.280029,324.499939 
	C323.782959,308.874329 318.426453,293.618103 319.962067,276.600952 
	C321.073578,269.807709 322.086761,263.423462 323.346436,256.750244 
	C325.307404,255.987671 327.000854,255.409607 328.740204,255.060135 
	C333.956818,254.012039 339.255463,253.305695 344.403564,251.999130 
	C351.727692,250.140305 356.779816,245.340607 357.154938,237.743790 
	C357.710083,226.502060 357.197632,215.207626 357.167969,203.502533 
	C354.828156,193.365814 352.460114,183.662186 350.060547,173.590515 
	C348.072571,168.693115 346.116119,164.163773 344.117004,159.339447 
	C343.512451,157.992828 342.950592,156.941177 342.299194,155.570297 
	C341.850983,154.702652 341.492340,154.154236 341.093323,153.325745 
	C340.482727,152.207428 339.912506,151.369186 339.243042,150.163376 
	C336.154846,145.074417 333.165863,140.353043 330.073425,135.317352 
	C327.040741,131.306580 324.111420,127.610115 321.045258,123.603638 
	C317.326660,119.506409 313.744965,115.719200 310.003143,111.634201 
	C304.416992,106.937172 298.990967,102.537926 293.351166,97.902802 
	C288.570709,94.382927 284.003967,91.098938 279.197327,87.551041 
	C274.307861,84.850685 269.658325,82.414230 264.804016,79.776901 
	C264.066071,79.392876 263.532898,79.209717 262.748291,78.828598 
	C261.703156,78.342804 260.909515,78.054962 259.854462,77.535095 
	C252.060822,74.873863 244.528595,72.444649 236.750565,69.918076 
	C236.331009,69.850433 236.157272,69.880142 235.619003,69.875839 
	C234.526703,69.834312 233.798920,69.826790 232.860367,69.477539 
	C227.765457,68.422501 222.881332,67.709198 217.590637,66.894043 
	C203.184738,65.570770 189.440750,66.906410 175.644562,70.896584 
	C174.555466,71.209900 173.784760,71.534714 172.750702,71.814224 
	C172.325104,71.842545 172.162872,71.916183 171.619965,71.976761 
	C168.153778,73.014702 165.068268,74.065712 161.692657,75.104797 
	C161.128189,75.353615 160.853806,75.614357 160.286987,75.883591 
	C159.330185,76.275551 158.665863,76.659035 157.700348,76.997200 
	C156.877670,77.190331 156.356186,77.428780 155.568649,77.750854 
	C154.830704,78.110954 154.358826,78.387428 153.523773,78.745956 
	C148.566757,81.152512 143.765182,83.143143 139.410660,85.852333 
	C86.623558,118.694130 55.992233,164.431580 57.304214,228.380798 
	C57.411488,233.609512 59.722160,238.793015 61.109268,244.322647 
	C65.647018,247.388931 69.790253,250.959610 74.595459,252.664169 
	C80.794838,254.863281 87.523834,255.569382 94.174393,257.309875 
	C94.530174,268.798065 94.736320,279.894836 94.802208,291.357117 
	C92.371918,311.225861 83.870323,327.882263 71.365379,342.728119 
	C70.005112,344.343018 68.949921,346.214935 67.551788,348.325806 
	C67.233574,366.122681 67.116791,383.561340 67.000000,401.000000 
	C45.010914,401.000000 23.021826,401.000000 1.016369,401.000000 
	C1.016369,267.743713 1.016369,134.487427 1.016369,1.000000 
	C139.354141,1.000000 277.708405,1.000000 416.531372,1.468657 
	C417.000031,134.958206 417.000031,267.979095 417.000000,401.000000 
z"/>
<path fill="#FFFFFF" opacity="1.000000" stroke="none" 
	d="
M417.468658,401.000000 
	C417.000031,267.979095 417.000031,134.958206 417.000031,1.468657 
	C428.687561,1.000000 440.375122,1.000000 452.531342,1.000000 
	C453.000000,134.020889 453.000000,267.041779 453.000000,400.531342 
	C441.312439,401.000000 429.624878,401.000000 417.468658,401.000000 
z"/>
<path fill="#010B25" opacity="1.000000" stroke="none" 
	d="
M243.000000,401.000000 
	C215.645767,401.000000 188.291550,401.000000 160.472778,400.578186 
	C160.039658,398.470703 160.071075,396.785034 160.353882,394.863129 
	C168.691727,374.020538 177.345932,353.612732 184.647903,332.732056 
	C188.906052,320.555511 191.000244,307.622284 194.240051,294.678040 
	C194.942261,289.714020 195.859314,285.107300 195.929276,280.487732 
	C196.130127,267.226318 195.795959,253.956238 196.037613,240.696228 
	C196.256516,228.684235 202.446762,224.606033 213.747803,228.595947 
	C214.827835,228.977264 215.833328,229.569687 216.937592,230.524536 
	C216.649323,246.324280 216.296860,261.663605 215.839020,277.404602 
	C214.170334,294.654602 215.149597,311.377197 218.208313,328.398132 
	C220.980453,340.213623 223.758865,351.627625 226.598297,363.437134 
	C232.106216,376.221741 237.553116,388.610870 243.000000,401.000000 
z"/>
<path fill="#000C25" opacity="1.000000" stroke="none" 
	d="
M331.000000,401.000000 
	C320.979095,401.000000 310.958221,401.000000 300.512207,400.533142 
	C300.011230,393.685883 299.935394,387.305450 299.799011,380.600830 
	C294.210083,371.160614 288.681732,362.044586 283.108734,352.549072 
	C280.706268,342.578583 278.330353,332.992065 276.001831,323.394012 
	C275.320862,320.587036 274.774750,317.747375 274.119049,314.487305 
	C274.105011,311.713806 274.138763,309.375732 274.240173,306.693787 
	C274.247833,305.889679 274.187836,305.429504 274.182312,304.504761 
	C274.156097,292.026825 274.075348,280.013428 274.070557,267.569885 
	C274.137939,265.106598 274.129395,263.073425 274.210480,260.592529 
	C274.560242,253.773315 274.820374,247.401871 275.464722,241.078156 
	C278.899536,241.713882 281.950104,242.301849 285.356812,243.033752 
	C289.119965,244.165039 292.526978,245.152420 296.164948,246.379364 
	C298.692047,249.417221 300.988159,252.215546 303.293549,255.413864 
	C304.947784,268.879486 306.592743,281.945099 308.209229,295.414062 
	C311.217194,308.272919 314.253632,320.728455 317.336182,333.594330 
	C319.511780,344.805756 324.534027,354.254150 330.948456,363.511017 
	C330.956696,376.317810 330.978333,388.658905 331.000000,401.000000 
z"/>
<path fill="#010B25" opacity="1.000000" stroke="none" 
	d="
M146.000000,401.000000 
	C137.312439,401.000000 128.624878,401.000000 119.488419,400.531921 
	C119.041115,393.719147 119.042702,387.374420 119.289734,380.792358 
	C123.234802,371.875183 127.485603,363.382385 130.508728,354.473022 
	C135.410629,340.026733 139.776016,325.381805 143.860458,310.679810 
	C147.227859,298.558777 149.859985,286.233521 152.943161,273.604248 
	C154.053116,265.817596 154.917953,258.406708 156.069992,251.040741 
	C156.705963,246.974365 157.266327,242.748795 158.840729,239.007339 
	C162.088364,231.289566 175.190002,229.015274 179.966766,235.439423 
	C181.616531,252.578445 182.056931,269.302399 178.907501,285.844482 
	C176.470978,298.642120 173.195129,311.279968 170.127594,324.335815 
	C163.293121,344.037506 156.647018,363.400421 149.929810,382.738617 
	C148.852234,385.840790 147.456650,388.832520 146.139923,392.328613 
	C146.047836,395.521301 146.023911,398.260651 146.000000,401.000000 
z"/>
<path fill="#010B25" opacity="1.000000" stroke="none" 
	d="
M286.000000,401.000000 
	C275.645782,401.000000 265.291534,401.000000 254.531769,400.604248 
	C254.145828,398.880981 254.165421,397.553467 254.287445,395.834534 
	C250.680450,385.367584 246.872955,375.326538 243.305054,365.201080 
	C241.651169,360.507507 240.463867,355.649536 239.058441,350.422180 
	C237.532623,333.988678 236.013397,317.999146 234.584457,301.596130 
	C234.425247,285.121918 234.175766,269.061127 233.997314,252.536575 
	C234.136673,246.916153 233.985046,241.740692 234.422668,236.615555 
	C234.536942,235.277390 236.290268,233.781998 237.650101,232.937042 
	C238.837036,232.199478 240.529617,232.275665 242.425537,232.048157 
	C247.109589,233.461365 251.366867,234.818710 255.773880,236.516632 
	C257.325714,243.903320 258.727814,250.949463 260.075897,258.458527 
	C260.145172,263.285583 260.268463,267.649750 260.304382,272.473877 
	C260.900299,290.955597 261.583649,308.977325 262.238831,327.398956 
	C265.658569,339.878418 269.106415,351.958008 272.633484,364.409058 
	C277.041107,372.029022 281.369507,379.277557 285.777924,386.951202 
	C285.905304,391.917542 285.952667,396.458771 286.000000,401.000000 
z"/>
<path fill="#010B25" opacity="1.000000" stroke="none" 
	d="
M105.000000,401.000000 
	C96.312439,401.000000 87.624870,401.000000 78.448357,400.531708 
	C78.040260,385.164185 78.121117,370.264954 78.463791,355.141937 
	C85.769875,344.852539 93.157936,335.007111 99.778419,324.670105 
	C109.888771,308.884125 112.446465,291.380005 110.066788,272.537628 
	C109.784554,248.413681 117.053612,241.097839 140.059631,242.438339 
	C139.701843,257.890747 139.279434,272.918213 138.673737,288.276978 
	C132.497787,317.614838 120.362839,344.243622 106.896065,370.363739 
	C106.209076,371.696228 105.959953,373.254456 105.380264,375.179626 
	C105.169052,384.101135 105.084526,392.550568 105.000000,401.000000 
z"/>
<path fill="#388CD4" opacity="1.000000" stroke="none" 
	d="
M239.065033,350.866089 
	C240.463867,355.649536 241.651169,360.507507 243.305054,365.201080 
	C246.872955,375.326538 250.680450,385.367584 253.878281,395.805664 
	C250.854874,397.265503 246.126404,395.441925 247.000000,401.000000 
	C245.933334,401.000000 244.866653,401.000000 243.399994,401.000000 
	C237.553116,388.610870 232.106216,376.221741 226.941833,363.559082 
	C228.865189,365.256592 230.250351,365.394592 231.675430,362.949280 
	C234.052063,358.871124 236.593185,354.888763 239.065033,350.866089 
z"/>
<path fill="#053A60" opacity="1.000000" stroke="none" 
	d="
M340.000000,401.000000 
	C338.610992,401.000000 337.222015,401.000000 335.411102,400.531372 
	C334.987976,388.963531 335.033783,377.863953 334.941040,366.765533 
	C334.924927,364.836548 334.323639,362.912415 334.191864,360.723328 
	C336.255768,359.245148 338.120514,358.029694 339.978638,357.294525 
	C339.981354,372.183197 339.990662,386.591614 340.000000,401.000000 
z"/>
<path fill="#453F7C" opacity="1.000000" stroke="none" 
	d="
M78.201973,355.365723 
	C78.121117,370.264954 78.040260,385.164185 77.979706,400.531708 
	C76.933327,401.000000 75.866661,401.000000 74.395737,400.531372 
	C74.085983,384.602844 74.180473,369.142975 74.604752,353.812866 
	C76.023682,354.416992 77.112831,354.891357 78.201973,355.365723 
z"/>
<path fill="#3B427C" opacity="1.000000" stroke="none" 
	d="
M105.437500,401.000000 
	C105.084526,392.550568 105.169052,384.101135 105.700073,375.225494 
	C108.081535,375.822968 110.016487,376.846680 111.940964,378.347046 
	C111.953644,386.215820 111.976822,393.607910 112.000000,401.000000 
	C109.958336,401.000000 107.916664,401.000000 105.437500,401.000000 
z"/>
<path fill="#09537F" opacity="1.000000" stroke="none" 
	d="
M340.375000,401.000000 
	C339.990662,386.591614 339.981354,372.183197 340.091064,357.042236 
	C340.946014,355.772827 341.681854,355.235962 342.417725,354.699066 
	C342.588135,365.661346 342.774353,376.623444 342.920837,387.586060 
	C342.976379,391.744720 342.940399,395.904572 342.973083,400.531952 
	C342.250000,401.000000 341.500000,401.000000 340.375000,401.000000 
z"/>
<path fill="#344D86" opacity="1.000000" stroke="none" 
	d="
M146.464630,401.000000 
	C146.023911,398.260651 146.047836,395.521301 146.532974,392.367371 
	C151.363617,393.001648 155.733047,394.050537 160.102478,395.099396 
	C160.071075,396.785034 160.039658,398.470703 160.004120,400.578186 
	C155.643097,401.000000 151.286194,401.000000 146.464630,401.000000 
z"/>
<path fill="#453F7C" opacity="1.000000" stroke="none" 
	d="
M67.333336,401.000000 
	C67.116791,383.561340 67.233574,366.122681 67.838898,348.452209 
	C68.931526,348.779327 69.535622,349.338257 69.818420,350.180359 
	C69.342194,352.256226 69.058197,354.048523 69.052666,355.841705 
	C69.006187,370.894379 69.010788,385.947205 69.000000,401.000000 
	C68.555557,401.000000 68.111107,401.000000 67.333336,401.000000 
z"/>
<path fill="#4F589E" opacity="1.000000" stroke="none" 
	d="
M119.044289,381.029694 
	C119.042702,387.374420 119.041115,393.719147 119.019760,400.531921 
	C117.611107,401.000000 116.222221,401.000000 114.412918,400.531433 
	C114.010880,393.028656 114.029259,385.994476 114.382965,379.013672 
	C116.160294,379.721252 117.602287,380.375458 119.044289,381.029694 
z"/>
<path fill="#302E60" opacity="1.000000" stroke="none" 
	d="
M69.333336,401.000000 
	C69.010788,385.947205 69.006187,370.894379 69.052666,355.841705 
	C69.058197,354.048523 69.342194,352.256226 70.057190,350.318542 
	C70.938316,350.620911 71.259369,351.068298 71.418304,351.990784 
	C71.170792,368.643951 71.085396,384.821991 71.000000,401.000000 
	C70.555557,401.000000 70.111107,401.000000 69.333336,401.000000 
z"/>
<path fill="#302E60" opacity="1.000000" stroke="none" 
	d="
M74.274971,353.683105 
	C74.180473,369.142975 74.085983,384.602844 73.995743,400.531372 
	C73.555557,401.000000 73.111107,401.000000 72.334572,400.531342 
	C71.958153,383.958008 71.913834,367.853363 72.189362,351.834869 
	C73.097794,352.508392 73.686386,353.095764 74.274971,353.683105 
z"/>
<path fill="#136597" opacity="1.000000" stroke="none" 
	d="
M299.859589,380.925049 
	C299.935394,387.305450 300.011230,393.685883 300.043518,400.533142 
	C298.611115,401.000000 297.222198,401.000000 295.411682,400.532288 
	C294.967773,394.422577 294.945435,388.780548 295.218933,382.960480 
	C296.963043,382.163300 298.411316,381.544189 299.859589,380.925049 
z"/>
<path fill="#09537F" opacity="1.000000" stroke="none" 
	d="
M333.992676,360.986053 
	C334.323639,362.912415 334.924927,364.836548 334.941040,366.765533 
	C335.033783,377.863953 334.987976,388.963531 334.994598,400.531372 
	C334.555542,401.000000 334.111115,401.000000 333.333344,400.531342 
	C332.990875,387.275574 332.981720,374.488495 333.089783,361.519836 
	C333.429871,361.133911 333.691742,361.016510 333.992676,360.986053 
z"/>
<path fill="#136597" opacity="1.000000" stroke="none" 
	d="
M293.000000,401.000000 
	C292.250000,401.000000 291.500000,401.000000 290.370178,400.533875 
	C289.959412,395.112640 289.928528,390.157562 290.179932,385.025696 
	C291.271210,384.533875 292.080231,384.218872 292.929108,384.375977 
	C292.979309,390.232086 292.989655,395.616058 293.000000,401.000000 
z"/>
<path fill="#453F7C" opacity="1.000000" stroke="none" 
	d="
M71.869514,351.748688 
	C71.913834,367.853363 71.958153,383.958008 72.001236,400.531342 
	C72.000000,401.000000 71.500000,401.000000 71.250000,401.000000 
	C71.085396,384.821991 71.170792,368.643951 71.484055,352.055939 
	C71.711914,351.645935 71.869514,351.748688 71.869514,351.748688 
z"/>
<path fill="#302E60" opacity="1.000000" stroke="none" 
	d="
M114.047638,378.960297 
	C114.029259,385.994476 114.010880,393.028656 113.996246,400.531433 
	C113.555557,401.000000 113.111107,401.000000 112.333328,401.000000 
	C111.976822,393.607910 111.953644,386.215820 112.233795,378.412048 
	C113.040627,378.320343 113.544136,378.640320 114.047638,378.960297 
z"/>
<path fill="#053A60" opacity="1.000000" stroke="none" 
	d="
M332.972595,361.701355 
	C332.981720,374.488495 332.990875,387.275574 333.000000,400.531342 
	C333.000000,401.000000 332.500000,401.000000 332.248566,400.531342 
	C331.922943,387.613159 331.848785,375.163666 331.924408,362.492432 
	C332.373657,362.080933 332.673096,361.891144 332.972595,361.701355 
z"/>
<path fill="#09537F" opacity="1.000000" stroke="none" 
	d="
M331.774597,362.714142 
	C331.848785,375.163666 331.922943,387.613159 331.998566,400.531342 
	C332.000000,401.000000 331.500000,401.000000 331.250000,401.000000 
	C330.978333,388.658905 330.956696,376.317810 331.147278,363.417419 
	C331.359497,362.858093 331.774597,362.714142 331.774597,362.714142 
z"/>
<path fill="#053A60" opacity="1.000000" stroke="none" 
	d="
M293.333313,401.000000 
	C292.989655,395.616058 292.979309,390.232086 293.096680,384.134766 
	C293.790649,383.327087 294.356873,383.232819 294.923126,383.138550 
	C294.945435,388.780548 294.967773,394.422577 294.995056,400.532288 
	C294.555542,401.000000 294.111115,401.000000 293.333313,401.000000 
z"/>
<path fill="#053A60" opacity="1.000000" stroke="none" 
	d="
M289.897644,385.202484 
	C289.928528,390.157562 289.959412,395.112640 289.995178,400.533875 
	C289.555542,401.000000 289.111115,401.000000 288.327209,400.533783 
	C287.983368,395.369904 287.979004,390.672272 288.176636,385.796753 
	C288.884979,385.480133 289.391296,385.341309 289.897644,385.202484 
z"/>
<path fill="#09537F" opacity="1.000000" stroke="none" 
	d="
M247.437500,401.000000 
	C246.126404,395.441925 250.854874,397.265503 253.775818,396.197083 
	C254.165421,397.553467 254.145828,398.880981 254.063110,400.604248 
	C251.958328,401.000000 249.916672,401.000000 247.437500,401.000000 
z"/>
<path fill="#136597" opacity="1.000000" stroke="none" 
	d="
M287.974640,385.974609 
	C287.979004,390.672272 287.983368,395.369904 287.993866,400.533783 
	C287.555542,401.000000 287.111115,401.000000 286.333313,401.000000 
	C285.952667,396.458771 285.905304,391.917542 286.145630,386.810242 
	C286.947113,386.154327 287.460876,386.064484 287.974640,385.974609 
z"/>
<path fill="#FFFFFF" opacity="1.000000" stroke="none" 
	d="
M1367.110352,310.024109 
	C1363.509521,310.695862 1360.362549,311.840424 1357.189575,311.917511 
	C1336.947754,312.409027 1316.699585,312.902039 1296.454956,312.848358 
	C1290.731689,312.833191 1284.900513,311.407318 1279.321045,309.886536 
	C1272.285645,307.968964 1267.154297,301.587128 1267.000000,295.736969 
	C1266.782471,287.487976 1269.023071,284.186584 1277.868042,280.657074 
	C1287.221924,276.924469 1289.651733,268.937225 1289.899658,260.258331 
	C1290.817993,228.105255 1291.507690,195.942505 1291.848633,163.778793 
	C1291.914307,157.577698 1290.636230,151.165482 1288.792358,145.218262 
	C1287.762329,141.895782 1284.425293,139.204971 1281.858765,136.483078 
	C1280.815308,135.376389 1279.087402,134.877350 1277.619751,134.215485 
	C1273.136963,132.194061 1269.299316,129.641312 1269.005127,124.088341 
	C1268.674072,117.841225 1272.024780,113.617386 1277.203613,111.101440 
	C1280.575562,109.463356 1284.510742,108.168831 1288.200806,108.150414 
	C1300.614258,108.088440 1313.029053,108.789551 1325.446655,108.975624 
	C1353.022949,109.388840 1380.602417,109.951569 1408.178223,109.846550 
	C1417.929810,109.809418 1427.687866,108.118660 1437.417358,106.966759 
	C1442.398315,106.377045 1446.780640,107.847702 1449.761597,111.442490 
	C1456.723755,119.838570 1462.009521,129.196381 1463.382324,141.810577 
	C1465.637329,128.678452 1475.124512,124.677948 1484.662109,121.053917 
	C1499.059937,115.583115 1514.093994,112.655525 1529.375122,111.029671 
	C1534.579834,110.475914 1539.883667,109.678688 1545.039551,110.139656 
	C1551.277954,110.697403 1555.108643,114.856445 1554.861572,121.163849 
	C1554.315308,135.100342 1553.020020,149.007446 1552.037354,162.927017 
	C1551.990479,163.590775 1552.007568,164.259232 1552.000488,164.925552 
	C1551.666626,196.501846 1551.278442,228.077759 1551.052612,259.654816 
	C1551.013916,265.069550 1550.834106,270.727509 1552.291748,275.823334 
	C1553.272583,279.252136 1556.823486,282.089478 1559.593140,284.817200 
	C1561.793335,286.984070 1565.296875,288.087433 1566.923828,290.528137 
	C1571.833740,297.894531 1566.142944,306.310333 1558.712036,308.791077 
	C1551.907104,311.062897 1544.585815,312.440979 1537.417725,312.825073 
	C1525.455811,313.466064 1513.411377,313.452545 1501.445801,312.846436 
	C1492.978516,312.417542 1484.067383,312.108215 1476.762573,307.038605 
	C1473.339233,304.662842 1470.297485,301.096588 1468.351318,297.401764 
	C1466.127930,293.180328 1468.547607,287.739929 1473.371094,286.105530 
	C1482.078125,283.155243 1484.589966,276.286285 1484.883911,268.539734 
	C1485.857056,242.888641 1486.609009,217.221115 1486.834839,191.554520 
	C1486.904297,183.671890 1485.313477,175.718384 1483.922241,167.897079 
	C1482.822510,161.714859 1477.995972,158.113083 1473.198120,154.553848 
	C1469.908813,152.113602 1467.089966,149.039108 1464.358154,146.522141 
	C1463.998169,149.436523 1463.549927,153.468353 1462.992432,157.485001 
	C1462.116699,163.796173 1458.131226,168.040619 1452.464111,169.650574 
	C1446.968262,171.211884 1441.466064,170.310837 1437.413208,165.030701 
	C1434.215454,160.864700 1430.348267,157.215073 1426.809082,153.308075 
	C1420.235229,146.050583 1411.575562,142.975555 1402.269897,142.130814 
	C1392.405151,141.235321 1382.447510,141.053940 1372.535645,141.142517 
	C1368.715088,141.176651 1365.197632,142.845993 1363.936890,147.503571 
	C1360.790649,159.127609 1359.569702,170.958038 1360.233276,182.901428 
	C1360.347168,184.951584 1363.328369,188.253891 1365.315063,188.520782 
	C1371.006592,189.285385 1377.022827,189.609116 1382.618408,188.553391 
	C1388.148560,187.509995 1388.795410,181.702728 1389.974487,177.047241 
	C1391.515381,170.963791 1394.027466,165.719864 1400.730469,164.011856 
	C1406.645020,162.504761 1412.088135,164.823395 1414.986328,170.083984 
	C1418.691406,176.809128 1420.870728,183.962952 1421.037964,191.732544 
	C1421.193970,198.984879 1422.311035,206.271210 1421.855103,213.469757 
	C1421.091675,225.527924 1419.900146,237.602966 1413.031982,248.251846 
	C1409.331665,253.989304 1398.540039,257.201080 1394.343750,251.860931 
	C1391.895264,248.745178 1390.741455,244.202560 1390.140381,240.134109 
	C1389.057861,232.807846 1386.814331,226.808701 1379.328857,223.741531 
	C1374.092041,221.595657 1368.762451,221.211304 1363.803589,223.359695 
	C1361.914795,224.178024 1360.131104,227.806686 1360.182251,230.112778 
	C1360.481934,243.606430 1361.114258,257.104492 1362.117432,270.565063 
	C1362.532715,276.136139 1368.133545,280.539246 1373.873413,280.999969 
	C1381.882568,281.642853 1386.488525,285.770905 1387.881958,293.555481 
	C1388.780640,298.575653 1384.716919,304.645905 1378.211548,307.203308 
	C1374.816162,308.538055 1371.115234,309.095032 1367.110352,310.024109 
z"/>
<path fill="#FFFFFF" opacity="1.000000" stroke="none" 
	d="
M653.716064,260.998901 
	C661.212402,259.334778 668.480530,258.310242 675.198303,255.808273 
	C680.659058,253.774490 685.823425,250.433777 690.448181,246.814957 
	C694.810974,243.401154 699.039490,240.163040 704.598206,242.366974 
	C710.033081,244.521851 712.640869,249.791199 712.832520,255.115067 
	C713.406738,271.071777 706.521301,284.042206 694.839783,294.510651 
	C692.921082,296.230133 689.988403,296.913300 687.430847,297.807861 
	C677.926697,301.132050 668.325745,304.186340 658.870544,307.641418 
	C648.447815,311.450043 637.845215,313.683380 626.684021,314.104584 
	C605.352478,314.909485 585.558838,309.767181 566.838623,299.961487 
	C550.320618,291.309296 537.674927,278.637604 527.895386,262.769562 
	C520.259399,250.379501 514.790344,237.088806 513.313171,222.825684 
	C512.036865,210.502197 512.481140,197.957718 515.651672,185.590897 
	C520.243042,167.682098 529.581360,152.457336 542.258240,139.696136 
	C558.466370,123.380249 578.316956,112.766891 601.051086,107.988388 
	C624.651733,103.027771 647.347107,105.828278 668.840027,116.578789 
	C675.309021,119.814484 681.498352,118.937828 687.843811,117.918030 
	C695.618835,116.668480 701.072083,120.303505 705.282532,125.903778 
	C717.067017,141.578140 721.005859,159.468018 716.736938,178.379166 
	C714.173157,189.736252 706.830933,196.147003 694.142456,197.805862 
	C683.543091,199.191605 676.533936,195.877106 670.560242,185.175919 
	C665.503357,176.116913 660.846741,166.693970 652.470947,159.984253 
	C639.331970,149.458832 624.866272,144.539536 608.192749,150.002029 
	C596.307739,153.895721 591.233643,163.817337 589.187378,174.832550 
	C585.236084,196.102448 589.591614,216.293137 601.268738,234.387344 
	C610.587830,248.827744 623.658569,258.452515 641.516663,260.006622 
	C645.426941,260.346924 649.338745,260.669281 653.716064,260.998901 
z"/>
<path fill="#FFFFFF" opacity="1.000000" stroke="none" 
	d="
M979.009033,219.431000 
	C978.334045,235.006454 977.369019,250.153427 977.121765,265.312103 
	C976.991943,273.267700 978.680481,280.990753 983.965942,287.564240 
	C989.202087,294.076416 988.889343,304.140106 978.647644,307.601868 
	C971.545959,310.002289 964.116272,311.622131 956.712097,312.876221 
	C951.067993,313.832184 945.181519,314.316376 939.495789,313.857727 
	C929.157532,313.023834 918.790771,311.825806 908.626831,309.815063 
	C902.547180,308.612244 897.794922,304.732880 896.334656,297.897247 
	C895.536194,294.159729 896.432800,290.995972 899.331299,289.019165 
	C907.125061,283.703705 909.829529,276.151733 910.009766,267.207825 
	C910.306946,252.458145 910.574219,237.706802 911.039124,222.961990 
	C911.271423,215.594452 908.652710,210.591904 901.885925,206.803848 
	C893.334167,202.016571 890.360168,190.687836 901.304565,185.480927 
	C913.108459,179.865097 925.538879,175.499725 937.879333,171.103790 
	C944.805176,168.636673 952.030945,166.847656 959.254944,165.435638 
	C964.694275,164.372498 970.992371,163.361847 974.450439,169.205200 
	C976.289734,172.313202 976.419434,176.527283 976.932373,180.294983 
	C977.321167,183.151138 976.150513,187.398621 979.903137,187.647079 
	C982.747131,187.835403 986.820923,185.902054 988.559998,183.576263 
	C997.799561,171.219940 1009.456421,164.876999 1025.191284,164.819473 
	C1040.299683,164.764252 1053.260010,168.874863 1064.066772,179.544220 
	C1070.256836,185.655670 1072.918701,193.448898 1073.869019,201.657211 
	C1075.077026,212.089188 1075.394043,222.627914 1075.984619,233.126846 
	C1076.715576,246.124786 1077.424683,259.125275 1077.963257,272.132141 
	C1078.250366,279.066956 1083.044067,283.428101 1087.327393,287.528046 
	C1094.241577,294.146088 1089.633179,305.464844 1082.940186,307.724243 
	C1074.782593,310.478088 1066.044312,312.126221 1057.443726,312.797791 
	C1046.678467,313.638428 1035.778809,313.383972 1024.974976,312.843842 
	C1019.265381,312.558411 1013.396973,311.317780 1008.023499,309.351593 
	C998.506409,305.869171 996.999573,296.634888 1004.921997,287.883820 
	C1009.020264,283.356873 1010.473755,278.211731 1010.827576,272.913605 
	C1011.687500,260.036743 1012.224548,247.081818 1011.781189,234.196564 
	C1011.533020,226.982758 1010.993042,219.097702 1005.666443,213.294159 
	C997.658447,204.569229 985.241821,206.674057 979.926697,217.312927 
	C979.640320,217.886169 979.320984,218.442932 979.009033,219.431000 
z"/>
<path fill="#FFFFFF" opacity="1.000000" stroke="none" 
	d="
M1829.242798,207.337891 
	C1823.887207,215.058380 1818.777588,222.500793 1813.583984,229.884079 
	C1811.134399,233.366486 1810.818726,236.451797 1813.555908,240.187027 
	C1820.806152,250.080933 1827.649292,260.272064 1834.747803,270.278656 
	C1838.944336,276.194214 1843.837891,281.271881 1850.686035,284.351105 
	C1857.529541,287.428253 1859.700562,291.019836 1858.935913,297.595367 
	C1858.250488,303.489594 1854.183838,307.439392 1848.942993,308.794647 
	C1841.000122,310.848694 1832.770630,312.475555 1824.600830,312.822113 
	C1809.801514,313.449951 1794.943115,313.372284 1780.136475,312.836456 
	C1773.165527,312.584137 1765.906982,312.367889 1759.572144,308.206055 
	C1755.817749,305.739594 1753.015137,303.189484 1752.915405,298.231354 
	C1752.815186,293.260498 1754.311646,289.996490 1759.154541,287.861725 
	C1763.978882,285.735168 1765.946899,280.584106 1763.407104,276.120789 
	C1760.390137,270.818665 1756.480835,265.973969 1752.517700,261.304993 
	C1751.769653,260.423798 1748.253540,260.526794 1747.215820,261.481445 
	C1741.080322,267.125946 1736.051025,273.750641 1733.787598,281.882080 
	C1733.097534,284.361389 1733.285889,288.286530 1734.812866,289.977356 
	C1742.148804,298.100433 1740.884033,308.783020 1727.900879,311.433868 
	C1714.506714,314.168640 1700.817017,314.455750 1687.433594,310.910339 
	C1679.978271,308.935303 1677.597168,305.067902 1678.006470,297.698944 
	C1678.254883,293.228943 1680.693115,290.191193 1684.984863,289.590057 
	C1693.826538,288.351624 1699.272461,283.130920 1703.719482,275.848724 
	C1712.187500,261.981995 1721.129517,248.405106 1729.642334,234.564957 
	C1730.456421,233.241272 1730.380493,230.322540 1729.451050,229.139359 
	C1722.004883,219.659988 1714.750977,209.935410 1706.364136,201.333038 
	C1702.739258,197.615143 1696.753418,195.851639 1691.536011,194.112411 
	C1682.958618,191.253143 1678.503906,184.911453 1682.328613,178.116043 
	C1684.366333,174.495529 1689.222046,171.576797 1693.410522,170.249588 
	C1700.419312,168.028687 1707.866821,166.620758 1715.211182,166.154297 
	C1728.921021,165.283524 1742.695557,164.941391 1756.430786,165.157471 
	C1763.824951,165.273804 1771.277710,166.601059 1778.550903,168.116379 
	C1786.100708,169.689285 1791.377930,176.962357 1786.164917,185.698502 
	C1781.383057,193.712006 1783.376587,200.048599 1790.751587,206.339828 
	C1793.960938,209.077454 1796.307373,206.981934 1798.149170,205.148468 
	C1800.758179,202.551468 1802.885254,199.398575 1804.863037,196.259491 
	C1806.873291,193.068970 1806.347290,189.850571 1804.226440,186.696472 
	C1797.329590,176.439072 1801.446533,167.791367 1813.905273,165.982117 
	C1825.033203,164.366180 1836.185181,164.026733 1847.237915,166.101547 
	C1852.857788,167.156494 1858.776733,171.655945 1858.121338,179.553787 
	C1857.651123,185.219986 1853.191284,187.081589 1849.582153,188.504013 
	C1841.459351,191.705475 1836.436279,197.702484 1831.844727,204.497131 
	C1831.202393,205.447601 1830.258667,206.194443 1829.242798,207.337891 
z"/>
<path fill="#FFFFFF" opacity="1.000000" stroke="none" 
	d="
M1106.218994,249.283157 
	C1117.674927,236.942764 1131.824585,230.876053 1147.929199,229.040329 
	C1155.896484,228.132156 1163.908203,227.577744 1171.911255,227.032089 
	C1176.951904,226.688400 1179.004883,224.795746 1178.991699,219.820084 
	C1178.970459,211.838669 1179.044678,203.996048 1176.233643,196.158066 
	C1173.635132,188.912628 1162.656738,187.417786 1157.861328,192.694366 
	C1153.124634,197.906448 1148.357056,203.131073 1144.097534,208.726669 
	C1137.740723,217.077560 1125.602173,221.664261 1116.790039,219.418884 
	C1104.792725,216.361877 1103.371582,202.214935 1108.650391,193.963486 
	C1115.203491,183.720139 1125.157593,177.501541 1136.166138,173.075760 
	C1149.739136,167.618958 1163.669067,164.134750 1178.563110,163.790955 
	C1194.948486,163.412720 1210.252808,166.009186 1224.025391,175.059341 
	C1234.388794,181.869247 1241.380127,191.224426 1241.922852,204.044296 
	C1242.581543,219.605667 1242.365723,235.206497 1243.148682,250.759003 
	C1243.460327,256.948792 1245.187256,263.121429 1246.817749,269.153809 
	C1247.240601,270.718262 1249.611938,272.626984 1251.285645,272.841980 
	C1262.665771,274.304047 1260.768433,280.087433 1258.228638,287.218994 
	C1252.890259,302.209259 1232.725098,314.053497 1218.496338,314.180511 
	C1206.935913,314.283661 1197.279907,311.264221 1189.856567,302.275238 
	C1187.632690,299.582428 1185.352051,299.524963 1182.568481,301.110077 
	C1177.285889,304.118469 1172.240845,307.794434 1166.613770,309.903046 
	C1146.522461,317.431702 1126.527710,317.026398 1109.736084,302.763519 
	C1094.094238,289.477051 1091.816162,265.379059 1106.218994,249.283157 
M1160.017456,256.809814 
	C1156.574951,262.945404 1155.822388,269.129883 1159.193481,275.635162 
	C1161.363770,279.823212 1164.748291,281.999756 1169.248535,281.915741 
	C1173.823120,281.830322 1178.298096,277.825043 1178.913086,273.169983 
	C1179.617310,267.841400 1180.059204,262.414246 1179.896973,257.051636 
	C1179.705444,250.719681 1176.023926,248.072632 1169.974854,250.135330 
	C1166.490234,251.323547 1163.538818,254.074966 1160.017456,256.809814 
z"/>
<path fill="#FFFFFF" opacity="1.000000" stroke="none" 
	d="
M746.059082,308.007263 
	C734.237488,301.198639 727.593079,291.455322 725.913574,278.042877 
	C723.755188,260.805542 733.227783,247.106339 747.612122,238.814880 
	C760.230286,231.541519 773.744751,227.818207 788.359741,227.941849 
	C792.939758,227.980606 797.635437,227.810593 802.062622,226.795715 
	C804.278076,226.287857 807.734375,223.593063 807.668945,222.009735 
	C807.328674,213.775269 806.362915,205.523346 804.952271,197.392502 
	C804.091431,192.430496 799.811096,188.899902 795.288269,189.401093 
	C791.059998,189.869598 786.467346,192.610977 783.267517,195.649796 
	C776.459900,202.114853 771.085938,210.178665 763.935974,216.168686 
	C756.988831,221.988846 745.311584,221.241058 739.923706,216.507736 
	C731.720032,209.300674 732.972900,200.032990 739.208374,191.375366 
	C748.204834,178.884216 761.850647,173.291321 775.768250,169.260452 
	C787.010803,166.004318 798.914429,163.445999 810.531738,163.417603 
	C830.980652,163.367584 850.456055,168.437561 863.746155,185.696365 
	C867.639160,190.752014 869.523193,197.852676 870.766724,204.316422 
	C872.122986,211.366623 871.833801,218.762741 871.958862,226.013290 
	C872.125610,235.677597 871.815735,245.352219 872.091492,255.011536 
	C872.200500,258.829285 872.782654,262.837860 874.184021,266.346283 
	C875.206360,268.905609 877.534851,271.958862 879.954346,272.760803 
	C888.404541,275.561676 889.863037,277.764099 887.157166,286.360870 
	C884.650391,294.325134 879.304138,300.027649 872.720520,304.771851 
	C860.279663,313.736725 846.678833,317.195953 831.974976,311.820190 
	C827.472351,310.174042 823.626160,306.423523 819.847290,303.204803 
	C816.849976,300.651917 814.555542,299.319153 810.507019,301.708588 
	C803.923340,305.594421 797.126892,309.539917 789.903564,311.832428 
	C775.967957,316.255249 761.933594,314.729279 748.289673,309.684174 
	C747.570068,309.418060 747.053528,308.602631 746.059082,308.007263 
M786.001160,270.084656 
	C786.365845,271.477264 786.556213,272.946289 787.126953,274.248566 
	C789.085693,278.717834 792.312134,281.844604 797.397827,281.931763 
	C802.089783,282.012146 805.938232,279.547089 806.839783,275.035065 
	C808.069946,268.878387 809.214539,262.363007 808.460754,256.239624 
	C807.556152,248.891815 802.990234,247.234512 796.034668,250.489273 
	C788.128113,254.189041 785.435608,260.867218 786.001160,270.084656 
z"/>
<path fill="#FFFFFF" opacity="1.000000" stroke="none" 
	d="
M1585.309937,207.737228 
	C1583.809326,206.686600 1582.696655,205.660660 1581.386841,205.077393 
	C1576.011230,202.683777 1573.672607,198.639374 1573.962158,192.778702 
	C1574.227417,187.409454 1577.230591,183.686371 1581.709961,181.944611 
	C1591.686401,178.065292 1601.766846,174.198792 1612.127808,171.630356 
	C1624.010986,168.684647 1636.182007,166.632172 1648.346069,165.182236 
	C1656.405762,164.221542 1658.974854,167.457962 1658.987061,175.895706 
	C1659.023315,200.721039 1659.000000,225.546448 1659.000000,250.371826 
	C1659.000000,254.703766 1659.175781,259.044373 1658.962646,263.365814 
	C1658.544800,271.839783 1661.747070,278.230835 1668.663452,283.285614 
	C1678.359131,290.371582 1677.443115,301.440857 1666.577271,306.910004 
	C1661.659058,309.385498 1656.052979,311.420990 1650.631836,311.790375 
	C1636.597412,312.746674 1622.450806,313.457336 1608.429688,312.723846 
	C1598.971924,312.229095 1588.986816,312.025208 1580.503906,306.154327 
	C1572.497314,300.613129 1572.011841,291.221405 1579.872925,285.668488 
	C1588.399170,279.645508 1592.178833,271.474854 1592.026978,261.175079 
	C1591.896729,252.348251 1592.125488,243.515594 1591.958740,234.689987 
	C1591.834106,228.103378 1591.790894,221.451523 1590.769775,214.977280 
	C1590.368164,212.431915 1587.404175,210.290726 1585.309937,207.737228 
z"/>
<path fill="#FFFFFF" opacity="1.000000" stroke="none" 
	d="
M1654.830566,137.497528 
	C1645.464844,149.519928 1632.138428,152.703308 1618.555664,154.874542 
	C1611.927124,155.934158 1605.088989,155.738571 1598.340942,155.979736 
	C1591.620728,156.219925 1586.295288,153.194290 1581.314941,148.911911 
	C1574.014526,142.634689 1575.486938,128.604263 1583.962402,122.931442 
	C1593.807739,116.341827 1604.643066,112.448601 1616.201782,111.173080 
	C1624.412231,110.267067 1632.992554,109.884041 1641.071167,111.253365 
	C1654.214600,113.481163 1660.999634,123.197510 1654.830566,137.497528 
z"/>
<path fill="#8C69C7" opacity="1.000000" stroke="none" 
	d="
M139.994980,242.013428 
	C117.053612,241.097839 109.784554,248.413681 109.800613,272.747253 
	C106.060326,278.799835 102.760162,284.267731 99.115570,289.495514 
	C98.426651,290.483704 96.368698,290.517456 94.942459,290.991577 
	C94.736320,279.894836 94.530174,268.798065 94.106758,256.971191 
	C90.764290,253.672272 92.777481,251.158493 94.126862,248.822723 
	C108.628426,223.720154 123.187477,198.650818 137.728928,173.571304 
	C149.693970,152.935318 161.688812,132.316391 173.557800,111.625305 
	C174.490906,109.998619 174.539749,107.864693 175.339203,105.798172 
	C186.066177,103.068985 196.453506,100.508118 206.776672,97.963066 
	C205.361557,86.307510 205.361557,86.307510 196.802429,87.724724 
	C196.529907,85.743698 195.845688,83.750313 196.494156,82.394211 
	C198.349091,78.515121 200.499100,74.714066 203.040329,71.254990 
	C204.174759,69.710815 206.407700,68.574196 208.346970,68.111763 
	C211.474564,67.365952 214.771698,67.331070 217.997208,66.995895 
	C222.881332,67.709198 227.765457,68.422501 232.812012,69.841316 
	C223.266113,87.355003 213.557800,104.163185 203.948227,120.800400 
	C207.135452,121.949532 209.564209,122.825203 211.542542,123.755096 
	C204.557358,123.892090 198.012405,123.938049 192.442535,128.959290 
	C180.083344,130.035568 173.886200,139.980835 177.507248,151.976852 
	C177.921432,158.233154 178.695999,164.345627 179.093750,170.596115 
	C177.448761,171.880569 175.789520,172.799744 174.971283,174.207687 
	C163.439194,194.050888 152.062714,213.984558 140.529037,233.826843 
	C138.906479,236.618271 137.192719,239.080322 139.994980,242.013428 
z"/>
<path fill="#9863C5" opacity="1.000000" stroke="none" 
	d="
M174.999542,105.966499 
	C174.539749,107.864693 174.490906,109.998619 173.557800,111.625305 
	C161.688812,132.316391 149.693970,152.935318 137.728928,173.571304 
	C123.187477,198.650818 108.628426,223.720154 94.126862,248.822723 
	C92.777481,251.158493 90.764290,253.672272 93.957123,256.579742 
	C87.523834,255.569382 80.794838,254.863281 74.595459,252.664169 
	C69.790253,250.959610 65.647018,247.388931 61.380142,244.095337 
	C61.860168,242.440979 61.954735,241.213898 62.512409,240.256592 
	C67.743622,231.276886 72.898041,222.244690 78.449158,213.464432 
	C79.872490,211.213150 82.620506,209.799362 84.865654,208.391663 
	C85.201202,210.425919 85.431038,212.069305 85.748917,214.342270 
	C86.522835,213.420395 86.783226,213.198593 86.934097,212.917908 
	C103.916145,181.324478 120.904648,149.734451 137.799622,118.094482 
	C138.353882,117.056511 137.951874,115.507904 137.996231,113.781937 
	C138.311157,111.776886 138.269608,109.994957 139.005432,108.633034 
	C141.367996,104.260307 144.295731,100.179642 146.486542,95.730789 
	C149.222717,90.174469 151.443588,84.364403 153.886932,78.663895 
	C154.358826,78.387428 154.830704,78.110954 155.720413,78.021858 
	C156.759338,77.820328 157.380432,77.431427 158.001541,77.042526 
	C158.665863,76.659035 159.330185,76.275551 160.565308,75.849846 
	C161.418304,75.577316 161.700531,75.347015 161.982758,75.116714 
	C165.068268,74.065712 168.153778,73.014702 171.721619,72.146759 
	C172.473984,72.173050 172.744034,72.016289 173.014069,71.859528 
	C173.784760,71.534714 174.555466,71.209900 175.871964,71.182449 
	C178.759155,71.372421 181.100555,71.265038 184.082077,71.128288 
	C183.243073,73.098061 182.950287,74.645012 182.071686,75.707611 
	C176.665359,82.246223 176.393234,93.298325 165.324951,94.902733 
	C165.176865,94.924202 165.107376,95.487740 164.629303,95.940842 
	C161.533890,96.752625 158.839523,97.597229 156.081009,98.056084 
	C149.475540,99.154846 152.869904,103.438011 153.107101,106.804512 
	C153.416748,111.199150 156.391846,110.136131 158.910416,109.650230 
	C162.960800,108.868805 166.967346,107.860085 171.090195,107.126366 
	C171.467453,107.153885 171.746918,107.002426 172.156342,106.804352 
	C172.286301,106.757744 172.536407,106.874741 172.823105,106.842400 
	C173.398132,106.572464 173.686462,106.334869 174.226349,106.028305 
	C174.651779,105.961716 174.825668,105.964111 174.999542,105.966499 
z"/>
<path fill="#6C76CC" opacity="1.000000" stroke="none" 
	d="
M170.292389,323.988831 
	C173.195129,311.279968 176.470978,298.642120 178.907501,285.844482 
	C182.056931,269.302399 181.616531,252.578445 180.241486,235.241821 
	C189.368881,219.421112 198.183487,204.239471 207.430847,188.990982 
	C212.074493,188.211121 216.541122,188.164398 220.449844,186.664139 
	C233.867920,181.513947 240.423416,171.074036 242.115097,156.835739 
	C241.993774,154.738342 241.563400,152.870911 241.062790,150.642990 
	C240.878098,149.557236 240.763641,148.831955 240.984283,147.974869 
	C243.207703,145.565506 245.452591,143.496262 246.925140,140.975800 
	C255.034073,127.096230 262.843506,113.041077 271.008087,99.195000 
	C273.392700,95.150970 276.604553,91.594757 279.437256,87.814949 
	C284.003967,91.098938 288.570709,94.382927 293.140228,98.282166 
	C283.257080,115.987480 273.341461,133.060471 263.493164,150.172241 
	C252.816483,168.723419 242.264343,187.346512 231.532974,205.865860 
	C226.805511,214.024109 221.769394,222.003510 216.873413,230.064102 
	C215.833328,229.569687 214.827835,228.977264 213.747803,228.595947 
	C202.446762,224.606033 196.256516,228.684235 196.037613,240.696228 
	C195.795959,253.956238 196.130127,267.226318 195.929276,280.487732 
	C195.859314,285.107300 194.942261,289.714020 193.965515,294.464203 
	C193.065353,293.477203 192.611725,292.352631 191.625473,289.907654 
	C187.847443,296.283661 184.782120,301.706055 181.472610,306.975006 
	C177.863861,312.720398 174.028793,318.323608 170.292389,323.988831 
z"/>
<path fill="#A45FC4" opacity="1.000000" stroke="none" 
	d="
M84.759941,208.000809 
	C82.620506,209.799362 79.872490,211.213150 78.449158,213.464432 
	C72.898041,222.244690 67.743622,231.276886 62.512409,240.256592 
	C61.954735,241.213898 61.860168,242.440979 61.279884,243.770218 
	C59.722160,238.793015 57.411488,233.609512 57.304214,228.380798 
	C55.992233,164.431580 86.623558,118.694130 139.410660,85.852333 
	C143.765182,83.143143 148.566757,81.152512 153.523773,78.745956 
	C151.443588,84.364403 149.222717,90.174469 146.486542,95.730789 
	C144.295731,100.179642 141.367996,104.260307 139.005432,108.633034 
	C138.269608,109.994957 138.311157,111.776886 137.679047,113.943970 
	C127.186043,117.589920 119.047897,123.756592 112.326401,131.722168 
	C93.764351,153.719818 83.651962,178.853989 84.759941,208.000809 
z"/>
<path fill="#627BCE" opacity="1.000000" stroke="none" 
	d="
M216.937607,230.524536 
	C221.769394,222.003510 226.805511,214.024109 231.532974,205.865860 
	C242.264343,187.346512 252.816483,168.723419 263.493164,150.172241 
	C273.341461,133.060471 283.257080,115.987480 293.353973,98.518051 
	C298.990967,102.537926 304.416992,106.937172 309.682922,111.785194 
	C300.134583,128.246078 290.702271,144.232574 281.369110,160.276733 
	C269.439636,180.784058 257.523468,201.299927 245.778214,221.912766 
	C244.024216,224.991013 243.234558,228.618759 241.998779,231.992310 
	C240.529617,232.275665 238.837036,232.199478 237.650101,232.937042 
	C236.290268,233.781998 234.536942,235.277390 234.422668,236.615555 
	C233.985046,241.740692 234.136673,246.916153 233.650940,252.604477 
	C229.006149,260.112701 224.889252,267.160767 220.459381,274.006317 
	C219.559555,275.396790 217.480057,276.023865 215.944397,277.002899 
	C216.296860,261.663605 216.649323,246.324280 216.937607,230.524536 
z"/>
<path fill="#597ECF" opacity="1.000000" stroke="none" 
	d="
M242.425537,232.048157 
	C243.234558,228.618759 244.024216,224.991013 245.778214,221.912766 
	C257.523468,201.299927 269.439636,180.784058 281.369110,160.276733 
	C290.702271,144.232574 300.134583,128.246078 309.843018,112.082977 
	C313.744965,115.719200 317.326660,119.506409 320.750824,123.808929 
	C314.723511,134.722824 308.918732,145.158737 302.969635,155.511719 
	C292.629333,173.506668 282.256012,191.483200 271.784210,209.401825 
	C266.524963,218.401047 261.018707,227.255920 255.624161,236.176071 
	C251.366867,234.818710 247.109589,233.461365 242.425537,232.048157 
z"/>
<path fill="#5181D0" opacity="1.000000" stroke="none" 
	d="
M255.773880,236.516632 
	C261.018707,227.255920 266.524963,218.401047 271.784210,209.401825 
	C282.256012,191.483200 292.629333,173.506668 302.969635,155.511719 
	C308.918732,145.158737 314.723511,134.722824 320.887695,124.118950 
	C324.111420,127.610115 327.040741,131.306580 329.926086,135.665985 
	C328.256989,139.222809 326.656586,142.130890 325.002960,145.008362 
	C305.746429,178.516403 286.479828,212.018646 267.222198,245.526031 
	C264.839478,249.671860 262.493134,253.838562 260.129944,257.995605 
	C258.727814,250.949463 257.325714,243.903320 255.773880,236.516632 
z"/>
<path fill="#4B83D0" opacity="1.000000" stroke="none" 
	d="
M260.075897,258.458527 
	C262.493134,253.838562 264.839478,249.671860 267.222198,245.526031 
	C286.479828,212.018646 305.746429,178.516403 325.002960,145.008362 
	C326.656586,142.130890 328.256989,139.222809 330.029480,135.980316 
	C333.165863,140.353043 336.154846,145.074417 338.766144,150.259857 
	C336.424805,152.817474 333.987152,154.632980 332.570709,157.047562 
	C318.045319,181.808716 303.617889,206.628281 289.357269,231.542679 
	C287.368195,235.017761 286.426971,239.092621 285.000671,242.889832 
	C281.950104,242.301849 278.899536,241.713882 275.060486,241.152664 
	C274.221619,247.799698 274.171204,254.419968 274.120819,261.040253 
	C274.129395,263.073425 274.137939,265.106598 273.707581,267.638794 
	C270.077698,273.441620 266.886688,278.745453 263.695709,284.049286 
	C263.130280,283.814453 262.564850,283.579620 261.999420,283.344788 
	C261.999420,281.435455 262.208496,279.496216 261.941101,277.625092 
	C261.668854,275.719818 260.927643,273.881500 260.391754,272.013885 
	C260.268463,267.649750 260.145172,263.285583 260.075897,258.458527 
z"/>
<path fill="#348DD4" opacity="1.000000" stroke="none" 
	d="
M308.237732,295.010712 
	C306.592743,281.945099 304.947784,268.879486 303.625488,255.500244 
	C304.606659,256.414154 305.265137,257.641632 306.376556,259.713440 
	C307.761353,257.976074 308.971558,256.788696 309.794434,255.375717 
	C321.722565,234.893967 333.634186,214.402374 345.464661,193.864105 
	C348.791443,188.088669 353.969147,182.591751 349.334808,175.102737 
	C349.234070,174.939911 349.824249,174.349503 350.092102,173.958557 
	C352.460114,183.662186 354.828156,193.365814 356.861755,203.753296 
	C355.994995,206.796280 355.984619,209.452057 354.841125,211.463791 
	C349.538574,220.792953 344.146912,230.088516 338.338165,239.106903 
	C334.464203,245.121460 333.165009,253.908875 323.481476,254.472473 
	C323.305084,254.482727 323.224976,256.146790 323.099945,257.039215 
	C322.086761,263.423462 321.073578,269.807709 319.580872,276.700195 
	C318.734894,278.227081 317.952850,279.297089 318.071503,280.255676 
	C318.694733,285.290924 317.180450,289.505371 314.295563,293.632477 
	C312.409393,296.330841 310.921600,297.399567 308.237732,295.010712 
z"/>
<path fill="#7F6EC9" opacity="1.000000" stroke="none" 
	d="
M211.992966,123.700874 
	C209.564209,122.825203 207.135452,121.949532 203.948227,120.800400 
	C213.557800,104.163185 223.266113,87.355003 233.022797,70.183044 
	C233.798920,69.826790 234.526703,69.834312 235.697266,70.055817 
	C236.425507,70.185020 236.710938,70.100227 236.996368,70.015434 
	C244.528595,72.444649 252.060822,74.873863 259.710266,77.870560 
	C257.153717,83.206390 254.501892,87.987183 251.802017,92.740692 
	C244.533737,105.537552 237.244919,118.322754 229.646988,130.974915 
	C223.550812,128.458466 217.771881,126.079666 211.992966,123.700874 
z"/>
<path fill="#3E8AD3" opacity="1.000000" stroke="none" 
	d="
M350.060547,173.590515 
	C349.824249,174.349503 349.234070,174.939911 349.334808,175.102737 
	C353.969147,182.591751 348.791443,188.088669 345.464661,193.864105 
	C333.634186,214.402374 321.722565,234.893967 309.794434,255.375717 
	C308.971558,256.788696 307.761353,257.976074 306.376556,259.713440 
	C305.265137,257.641632 304.606659,256.414154 303.616211,255.100250 
	C300.988159,252.215546 298.692047,249.417221 296.314880,246.059723 
	C296.640839,244.973175 297.114899,244.484558 297.445038,243.912857 
	C311.397339,219.751099 325.396820,195.616135 339.213684,171.377090 
	C341.302002,167.713486 342.532410,163.560852 344.159668,159.634430 
	C346.116119,164.163773 348.072571,168.693115 350.060547,173.590515 
z"/>
<path fill="#4587D2" opacity="1.000000" stroke="none" 
	d="
M344.117004,159.339447 
	C342.532410,163.560852 341.302002,167.713486 339.213684,171.377090 
	C325.396820,195.616135 311.397339,219.751099 297.445038,243.912857 
	C297.114899,244.484558 296.640839,244.973175 296.083923,245.820175 
	C292.526978,245.152420 289.119965,244.165039 285.356812,243.033752 
	C286.426971,239.092621 287.368195,235.017761 289.357269,231.542679 
	C303.617889,206.628281 318.045319,181.808716 332.570709,157.047562 
	C333.987152,154.632980 336.424805,152.817474 338.865356,150.627411 
	C339.912506,151.369186 340.482727,152.207428 341.081879,153.694946 
	C341.536804,154.859329 341.962799,155.374420 342.388763,155.889526 
	C342.950592,156.941177 343.512451,157.992828 344.117004,159.339447 
z"/>
<path fill="#7473CB" opacity="1.000000" stroke="none" 
	d="
M229.964249,131.112579 
	C237.244919,118.322754 244.533737,105.537552 251.802017,92.740692 
	C254.501892,87.987183 257.153717,83.206390 259.971680,78.102585 
	C260.909515,78.054962 261.703156,78.342804 262.780701,79.120667 
	C263.712646,79.733055 264.360748,79.855415 265.008820,79.977768 
	C269.658325,82.414230 274.307861,84.850685 279.197327,87.551041 
	C276.604553,91.594757 273.392700,95.150970 271.008087,99.195000 
	C262.843506,113.041077 255.034073,127.096230 246.925140,140.975800 
	C245.452591,143.496262 243.207703,145.565506 240.776031,147.694321 
	C237.814407,142.987549 235.396118,138.429504 232.851105,133.671082 
	C232.498138,133.231735 232.222519,133.086319 231.660477,132.891418 
	C230.937012,132.203156 230.450623,131.657867 229.964249,131.112579 
z"/>
<path fill="#846CC8" opacity="1.000000" stroke="none" 
	d="
M94.802208,291.357117 
	C96.368698,290.517456 98.426651,290.483704 99.115570,289.495514 
	C102.760162,284.267731 106.060326,278.799835 109.746078,273.205566 
	C112.446465,291.380005 109.888771,308.884125 99.778419,324.670105 
	C93.157936,335.007111 85.769875,344.852539 78.463791,355.141968 
	C77.112831,354.891357 76.023682,354.416992 74.604752,353.812866 
	C73.686386,353.095764 73.097794,352.508392 72.189362,351.834869 
	C71.869514,351.748688 71.711914,351.645935 71.646172,351.580811 
	C71.259369,351.068298 70.938316,350.620911 70.378487,350.035370 
	C69.535622,349.338257 68.931526,348.779327 68.040329,348.093994 
	C68.949921,346.214935 70.005112,344.343018 71.365379,342.728119 
	C83.870323,327.882263 92.371918,311.225861 94.802208,291.357117 
z"/>
<path fill="#2C91D6" opacity="1.000000" stroke="none" 
	d="
M323.346436,256.750244 
	C323.224976,256.146790 323.305084,254.482727 323.481476,254.472473 
	C333.165009,253.908875 334.464203,245.121460 338.338165,239.106903 
	C344.146912,230.088516 349.538574,220.792953 354.841125,211.463791 
	C355.984619,209.452057 355.994995,206.796280 356.833527,204.186401 
	C357.197632,215.207626 357.710083,226.502060 357.154938,237.743790 
	C356.779816,245.340607 351.727692,250.140305 344.403564,251.999130 
	C339.255463,253.305695 333.956818,254.012039 328.740204,255.060135 
	C327.000854,255.409607 325.307404,255.987671 323.346436,256.750244 
z"/>
<path fill="#2594D7" opacity="1.000000" stroke="none" 
	d="
M308.209259,295.414062 
	C310.921600,297.399567 312.409393,296.330841 314.295563,293.632477 
	C317.180450,289.505371 318.694733,285.290924 318.071503,280.255676 
	C317.952850,279.297089 318.734894,278.227081 319.482544,277.109192 
	C318.426453,293.618103 323.782959,308.874329 328.892029,324.532745 
	C325.686859,328.049957 322.826630,331.145538 319.830750,334.387970 
	C319.259705,334.117340 318.274872,333.650665 317.290070,333.183990 
	C314.253632,320.728455 311.217194,308.272919 308.209259,295.414062 
z"/>
<path fill="#1899D9" opacity="1.000000" stroke="none" 
	d="
M317.336182,333.594330 
	C318.274872,333.650665 319.259705,334.117340 319.830750,334.387970 
	C322.826630,331.145538 325.686859,328.049957 328.935059,324.921570 
	C333.795563,334.613037 338.268066,344.337341 342.579132,354.380371 
	C341.681854,355.235962 340.946014,355.772827 340.097687,356.561951 
	C338.120514,358.029694 336.255768,359.245148 334.191833,360.723328 
	C333.691742,361.016510 333.429871,361.133911 333.089783,361.519836 
	C332.673096,361.891144 332.373657,362.080933 331.924408,362.492432 
	C331.774597,362.714142 331.359497,362.858093 331.160675,362.951721 
	C324.534027,354.254150 319.511780,344.805756 317.336182,333.594330 
z"/>
<path fill="#9465C5" opacity="1.000000" stroke="none" 
	d="
M165.001205,95.798264 
	C165.107376,95.487740 165.176865,94.924202 165.324951,94.902733 
	C176.393234,93.298325 176.665359,82.246223 182.071686,75.707611 
	C182.950287,74.645012 183.243073,73.098061 184.082077,71.128288 
	C181.100555,71.265038 178.759155,71.372421 176.190369,71.193939 
	C189.440750,66.906410 203.184738,65.570770 217.590637,66.894043 
	C214.771698,67.331070 211.474564,67.365952 208.346970,68.111763 
	C206.407700,68.574196 204.174759,69.710815 203.040329,71.254990 
	C200.499100,74.714066 198.349091,78.515121 196.494156,82.394211 
	C195.845688,83.750313 196.529907,85.743698 196.438736,87.840149 
	C185.848358,90.755577 175.424789,93.276917 165.001205,95.798264 
z"/>
<path fill="#7F6EC9" opacity="1.000000" stroke="none" 
	d="
M264.804016,79.776901 
	C264.360748,79.855415 263.712646,79.733055 263.032166,79.318619 
	C263.532898,79.209717 264.066071,79.392876 264.804016,79.776901 
z"/>
<path fill="#A45FC4" opacity="1.000000" stroke="none" 
	d="
M157.700348,76.997208 
	C157.380432,77.431427 156.759338,77.820328 155.986465,77.938232 
	C156.356186,77.428780 156.877670,77.190331 157.700348,76.997208 
z"/>
<path fill="#4B83D0" opacity="1.000000" stroke="none" 
	d="
M342.299194,155.570297 
	C341.962799,155.374420 341.536804,154.859329 341.122284,153.975021 
	C341.492340,154.154236 341.850983,154.702652 342.299194,155.570297 
z"/>
<path fill="#A45FC4" opacity="1.000000" stroke="none" 
	d="
M161.692657,75.104797 
	C161.700531,75.347015 161.418304,75.577316 160.857758,75.841354 
	C160.853806,75.614357 161.128189,75.353615 161.692657,75.104797 
z"/>
<path fill="#8C69C7" opacity="1.000000" stroke="none" 
	d="
M236.750565,69.918076 
	C236.710938,70.100227 236.425507,70.185020 236.061798,70.089828 
	C236.157272,69.880142 236.331009,69.850433 236.750565,69.918076 
z"/>
<path fill="#9465C5" opacity="1.000000" stroke="none" 
	d="
M172.750702,71.814217 
	C172.744034,72.016289 172.473984,72.173050 172.102295,72.159821 
	C172.162872,71.916183 172.325104,71.842545 172.750702,71.814217 
z"/>
<path fill="#5F7BCE" opacity="1.000000" stroke="none" 
	d="
M170.127594,324.335815 
	C174.028793,318.323608 177.863861,312.720398 181.472610,306.975006 
	C184.782120,301.706055 187.847443,296.283661 191.625473,289.907654 
	C192.611725,292.352631 193.065353,293.477203 193.793503,294.815613 
	C191.000244,307.622284 188.906052,320.555511 184.647903,332.732056 
	C177.345932,353.612732 168.691727,374.020538 160.353882,394.863129 
	C155.733047,394.050537 151.363617,393.001648 146.601135,391.914032 
	C147.456650,388.832520 148.852234,385.840790 149.929810,382.738617 
	C156.647018,363.400421 163.293121,344.037506 170.127594,324.335815 
z"/>
<path fill="#5480CF" opacity="1.000000" stroke="none" 
	d="
M215.839020,277.404602 
	C217.480057,276.023865 219.559555,275.396790 220.459381,274.006317 
	C224.889252,267.160767 229.006149,260.112701 233.579895,253.068222 
	C234.175766,269.061127 234.425247,285.121918 234.254547,301.727539 
	C231.457550,307.357849 229.438782,312.655579 226.590302,317.461548 
	C224.324203,321.284912 221.044342,324.507416 218.214569,327.996704 
	C215.149597,311.377197 214.170334,294.654602 215.839020,277.404602 
z"/>
<path fill="#4785D1" opacity="1.000000" stroke="none" 
	d="
M218.208298,328.398132 
	C221.044342,324.507416 224.324203,321.284912 226.590302,317.461548 
	C229.438782,312.655579 231.457550,307.357849 234.164276,302.140961 
	C236.013397,317.999146 237.532623,333.988678 239.058441,350.422180 
	C236.593185,354.888763 234.052063,358.871124 231.675430,362.949280 
	C230.250351,365.394592 228.865189,365.256592 226.880798,363.163605 
	C223.758865,351.627625 220.980453,340.213623 218.208298,328.398132 
z"/>
<path fill="#4189D3" opacity="1.000000" stroke="none" 
	d="
M260.304382,272.473877 
	C260.927643,273.881500 261.668854,275.719818 261.941101,277.625092 
	C262.208496,279.496216 261.999420,281.435455 261.999420,283.344788 
	C262.564850,283.579620 263.130280,283.814453 263.695709,284.049286 
	C266.886688,278.745453 270.077698,273.441620 273.631653,268.068909 
	C274.075348,280.013428 274.156097,292.026825 273.931580,304.651245 
	C273.808411,305.854034 273.990448,306.445862 274.172485,307.037659 
	C274.138763,309.375732 274.105011,311.713806 273.825439,314.672363 
	C271.782501,318.055725 270.267731,321.072815 268.089050,323.492035 
	C266.638611,325.102570 264.240784,325.859894 262.266968,326.999084 
	C261.583649,308.977325 260.900299,290.955597 260.304382,272.473877 
z"/>
<path fill="#348DD4" opacity="1.000000" stroke="none" 
	d="
M262.238831,327.398956 
	C264.240784,325.859894 266.638611,325.102570 268.089050,323.492035 
	C270.267731,321.072815 271.782501,318.055725 273.873169,315.107788 
	C274.774750,317.747375 275.320862,320.587036 276.001831,323.394012 
	C278.330353,332.992065 280.706268,342.578583 282.814331,352.736816 
	C281.437103,355.083771 280.382935,356.915466 279.164490,358.630463 
	C277.466522,361.020477 276.667328,364.578400 272.554291,364.037598 
	C269.106415,351.958008 265.658569,339.878418 262.238831,327.398956 
z"/>
<path fill="#2594D7" opacity="1.000000" stroke="none" 
	d="
M272.633484,364.409058 
	C276.667328,364.578400 277.466522,361.020477 279.164490,358.630463 
	C280.382935,356.915466 281.437103,355.083771 282.858948,353.116364 
	C288.681732,362.044586 294.210083,371.160614 299.799011,380.600830 
	C298.411316,381.544189 296.963043,382.163300 295.218933,382.960480 
	C294.356873,383.232819 293.790649,383.327087 293.056824,383.662598 
	C292.080231,384.218872 291.271210,384.533875 290.179932,385.025696 
	C289.391296,385.341309 288.884979,385.480133 288.176636,385.796753 
	C287.460876,386.064484 286.947113,386.154327 286.065613,386.385132 
	C281.369507,379.277557 277.041107,372.029022 272.633484,364.409058 
z"/>
<path fill="#4587D2" opacity="1.000000" stroke="none" 
	d="
M274.210480,260.592529 
	C274.171204,254.419968 274.221619,247.799698 274.676270,241.104919 
	C274.820374,247.401871 274.560242,253.773315 274.210480,260.592529 
z"/>
<path fill="#348DD4" opacity="1.000000" stroke="none" 
	d="
M274.240173,306.693787 
	C273.990448,306.445862 273.808411,305.854034 273.877106,305.115784 
	C274.187836,305.429504 274.247833,305.889679 274.240173,306.693787 
z"/>
<path fill="#7D6FC9" opacity="1.000000" stroke="none" 
	d="
M206.998108,189.057831 
	C198.183487,204.239471 189.368881,219.421112 180.279556,234.800323 
	C175.190002,229.015274 162.088364,231.289566 158.840729,239.007339 
	C157.266327,242.748795 156.705963,246.974365 156.069992,251.040741 
	C154.917953,258.406708 154.053116,265.817596 152.614243,273.671387 
	C149.142075,278.544250 146.055771,282.910950 143.136673,287.386719 
	C141.807281,289.425049 140.627228,290.349548 138.857025,287.945709 
	C139.279434,272.918213 139.701843,257.890747 140.059631,242.438339 
	C137.192719,239.080322 138.906479,236.618271 140.529037,233.826843 
	C152.062714,213.984558 163.439194,194.050888 174.971283,174.207687 
	C175.789520,172.799744 177.448761,171.880569 179.071762,170.686707 
	C179.426590,170.639267 179.277039,170.744293 179.276794,171.010818 
	C179.522369,171.518555 179.768219,171.759766 180.172699,172.294250 
	C186.851578,181.912735 195.469055,187.842316 206.998108,189.057831 
z"/>
<path fill="#7273CB" opacity="1.000000" stroke="none" 
	d="
M138.673737,288.276978 
	C140.627228,290.349548 141.807281,289.425049 143.136673,287.386719 
	C146.055771,282.910950 149.142075,278.544250 152.489029,274.065887 
	C149.859985,286.233521 147.227859,298.558777 143.860458,310.679810 
	C139.776016,325.381805 135.410629,340.026733 130.508728,354.473022 
	C127.485603,363.382385 123.234802,371.875183 119.289734,380.792358 
	C117.602287,380.375458 116.160294,379.721252 114.382965,379.013672 
	C113.544136,378.640320 113.040627,378.320343 112.244286,377.935364 
	C110.016487,376.846680 108.081535,375.822968 105.826767,374.753418 
	C105.959953,373.254456 106.209076,371.696228 106.896065,370.363739 
	C120.362839,344.243622 132.497787,317.614838 138.673737,288.276978 
z"/>
<path fill="#000000" opacity="1.000000" stroke="none" 
	d="
M1160.182373,256.466309 
	C1163.538818,254.074966 1166.490234,251.323547 1169.974854,250.135330 
	C1176.023926,248.072632 1179.705444,250.719681 1179.896973,257.051636 
	C1180.059204,262.414246 1179.617310,267.841400 1178.913086,273.169983 
	C1178.298096,277.825043 1173.823120,281.830322 1169.248535,281.915741 
	C1164.748291,281.999756 1161.363770,279.823212 1159.193481,275.635162 
	C1155.822388,269.129883 1156.574951,262.945404 1160.182373,256.466309 
z"/>
<path fill="#000000" opacity="1.000000" stroke="none" 
	d="
M786.000610,269.643677 
	C785.435608,260.867218 788.128113,254.189041 796.034668,250.489273 
	C802.990234,247.234512 807.556152,248.891815 808.460754,256.239624 
	C809.214539,262.363007 808.069946,268.878387 806.839783,275.035065 
	C805.938232,279.547089 802.089783,282.012146 797.397827,281.931763 
	C792.312134,281.844604 789.085693,278.717834 787.126953,274.248566 
	C786.556213,272.946289 786.365845,271.477264 786.000610,269.643677 
z"/>
<path fill="#1D1D1B" opacity="1.000000" stroke="none" 
	d="
M207.430847,188.990997 
	C195.469055,187.842316 186.851578,181.912735 180.188416,172.016907 
	C179.789322,171.212296 179.533188,170.978302 179.277039,170.744293 
	C179.277039,170.744293 179.426590,170.639267 179.448578,170.548676 
	C178.695999,164.345627 177.921432,158.233154 177.613068,152.328552 
	C182.671616,160.008987 189.096664,163.120438 196.335495,161.377289 
	C204.354019,159.446396 209.664047,152.211853 209.049500,144.055298 
	C208.409912,135.566238 202.361374,129.906464 192.820343,128.869293 
	C198.012405,123.938049 204.557358,123.892090 211.542542,123.755096 
	C217.771881,126.079666 223.550812,128.458466 229.646988,130.974915 
	C230.450623,131.657867 230.937012,132.203156 231.742645,133.141998 
	C232.367203,133.647537 232.672501,133.759506 232.977814,133.871475 
	C235.396118,138.429504 237.814407,142.987549 240.440948,147.826126 
	C240.763641,148.831955 240.878098,149.557236 241.003479,151.024323 
	C241.278275,153.532639 241.542160,155.299164 241.806046,157.065689 
	C240.423416,171.074036 233.867920,181.513947 220.449844,186.664139 
	C216.541122,188.164398 212.074493,188.211121 207.430847,188.990997 
z"/>
<path fill="#FCFBFD" opacity="1.000000" stroke="none" 
	d="
M192.442535,128.959290 
	C202.361374,129.906464 208.409912,135.566238 209.049500,144.055298 
	C209.664047,152.211853 204.354019,159.446396 196.335495,161.377289 
	C189.096664,163.120438 182.671616,160.008987 177.973450,152.184723 
	C173.886200,139.980835 180.083344,130.035568 192.442535,128.959290 
z"/>
<path fill="#FCFBFD" opacity="1.000000" stroke="none" 
	d="
M164.629303,95.940842 
	C175.424789,93.276917 185.848358,90.755577 196.635620,88.118820 
	C205.361557,86.307510 205.361557,86.307510 206.776672,97.963066 
	C196.453506,100.508118 186.066177,103.068985 175.339203,105.798172 
	C174.825668,105.964111 174.651779,105.961716 173.936569,106.039169 
	C173.108948,106.370918 172.822678,106.622826 172.536407,106.874741 
	C172.536407,106.874741 172.286301,106.757744 171.892563,106.772293 
	C171.330017,106.840363 171.161224,106.893875 170.992416,106.947388 
	C166.967346,107.860085 162.960800,108.868805 158.910416,109.650230 
	C156.391846,110.136131 153.416748,111.199150 153.107101,106.804512 
	C152.869904,103.438011 149.475540,99.154846 156.081009,98.056084 
	C158.839523,97.597229 161.533890,96.752625 164.629303,95.940842 
z"/>
<path fill="#FDFCFE" opacity="1.000000" stroke="none" 
	d="
M84.865654,208.391663 
	C83.651962,178.853989 93.764351,153.719818 112.326401,131.722168 
	C119.047897,123.756592 127.186043,117.589920 137.678436,114.359360 
	C137.951874,115.507904 138.353882,117.056511 137.799622,118.094482 
	C120.904648,149.734451 103.916145,181.324478 86.934097,212.917908 
	C86.783226,213.198593 86.522835,213.420395 85.748917,214.342270 
	C85.431038,212.069305 85.201202,210.425919 84.865654,208.391663 
z"/>
<path fill="#8C69C7" opacity="1.000000" stroke="none" 
	d="
M172.823105,106.842392 
	C172.822678,106.622826 173.108948,106.370918 173.685028,106.108139 
	C173.686462,106.334869 173.398132,106.572464 172.823105,106.842392 
z"/>
<path fill="#8C69C7" opacity="1.000000" stroke="none" 
	d="
M171.090195,107.126358 
	C171.161224,106.893875 171.330017,106.840363 171.762604,106.818909 
	C171.746918,107.002426 171.467453,107.153885 171.090195,107.126358 
z"/>
<path fill="#7473CB" opacity="1.000000" stroke="none" 
	d="
M242.115097,156.835739 
	C241.542160,155.299164 241.278275,153.532639 241.073700,151.384796 
	C241.563400,152.870911 241.993774,154.738342 242.115097,156.835739 
z"/>
<path fill="#7F6EC9" opacity="1.000000" stroke="none" 
	d="
M232.851105,133.671082 
	C232.672501,133.759506 232.367203,133.647537 231.979721,133.284973 
	C232.222519,133.086319 232.498138,133.231735 232.851105,133.671082 
z"/>
<path fill="#8C69C7" opacity="1.000000" stroke="none" 
	d="
M179.276794,171.010818 
	C179.533188,170.978302 179.789322,171.212296 180.029770,171.723633 
	C179.768219,171.759766 179.522369,171.518555 179.276794,171.010818 
z"/>
</svg>