<?xml version="1.0" encoding="UTF-8"?>
<!DOCTYPE svg PUBLIC "-//W3C//DTD SVG 1.1//EN" "http://www.w3.org/Graphics/SVG/1.1/DTD/svg11.dtd">
<svg xmlns="http://www.w3.org/2000/svg" version="1.1" width="332px" height="165px" style="shape-rendering:geometricPrecision; text-rendering:geometricPrecision; image-rendering:optimizeQuality; fill-rule:evenodd; clip-rule:evenodd" xmlns:xlink="http://www.w3.org/1999/xlink">
<g><path style="opacity:0.978" fill="#000b25" d="M 154.5,-0.5 C 162.167,-0.5 169.833,-0.5 177.5,-0.5C 206.409,8.60195 218.909,28.2686 215,58.5C 212.455,68.9614 206.955,77.2947 198.5,83.5C 193.719,76.9745 191.885,69.6411 193,61.5C 195.877,60.5438 198.544,59.2105 201,57.5C 202.765,48.3135 200.932,39.9802 195.5,32.5C 193.478,28.4784 190.478,25.4784 186.5,23.5C 183.378,20.4316 179.711,18.0983 175.5,16.5C 169.059,13.8792 162.726,13.8792 156.5,16.5C 137.368,23.4723 128.535,37.139 130,57.5C 132.305,59.9305 135.138,60.9305 138.5,60.5C 139.352,68.9418 137.018,76.2752 131.5,82.5C 117.398,69.4515 112.565,53.4515 117,34.5C 123.105,15.8826 135.605,4.2159 154.5,-0.5 Z"/></g>
<g><path style="opacity:1" fill="#f1edf7" d="M 158.5,24.5 C 156.5,24.8333 154.5,25.1667 152.5,25.5C 152.5,24.5 152.5,23.5 152.5,22.5C 154.216,22.3713 155.883,22.038 157.5,21.5C 167.537,20.3808 167.87,21.3808 158.5,24.5 Z"/></g>
<g><path style="opacity:1" fill="#6675c9" d="M 175.5,16.5 C 179.711,18.0983 183.378,20.4316 186.5,23.5C 181.611,32.9399 176.445,42.2733 171,51.5C 170.241,53.0629 169.074,54.0629 167.5,54.5C 166.116,53.1991 164.616,53.1991 163,54.5C 162.667,60.1667 162.333,65.8333 162,71.5C 159.792,79.2887 157.292,86.9554 154.5,94.5C 153.041,94.5674 151.708,94.2341 150.5,93.5C 155.555,82.0037 158.555,70.0037 159.5,57.5C 162.403,53.3699 165.07,49.0366 167.5,44.5C 175.089,39.6277 175.423,34.2944 168.5,28.5C 171.335,24.8362 173.668,20.8362 175.5,16.5 Z"/></g>
<g><path style="opacity:1" fill="#8568c2" d="M 175.5,16.5 C 173.668,20.8362 171.335,24.8362 168.5,28.5C 166.585,28.2155 164.919,28.5489 163.5,29.5C 159.686,29.6509 158.019,31.6509 158.5,35.5C 156.222,42.397 153.056,49.0636 149,55.5C 147.698,56.0848 146.531,56.7515 145.5,57.5C 144.542,57.9528 143.708,58.6195 143,59.5C 143.637,69.4415 140.47,77.7749 133.5,84.5C 132.5,84.1667 131.833,83.5 131.5,82.5C 137.018,76.2752 139.352,68.9418 138.5,60.5C 145.179,48.4728 151.845,36.4728 158.5,24.5C 167.87,21.3808 167.537,20.3808 157.5,21.5C 157.751,19.8297 158.418,18.3297 159.5,17C 158.552,16.5172 157.552,16.3505 156.5,16.5C 162.726,13.8792 169.059,13.8792 175.5,16.5 Z"/></g>
<g><path style="opacity:1" fill="#5679c8" d="M 186.5,23.5 C 190.478,25.4784 193.478,28.4784 195.5,32.5C 189.833,41.8333 184.167,51.1667 178.5,60.5C 178.512,56.5541 176.512,54.8874 172.5,55.5C 172.5,61.1667 172.5,66.8333 172.5,72.5C 171.71,71.3915 171.21,70.0581 171,68.5C 170.059,70.7274 168.892,72.7274 167.5,74.5C 167.5,67.8333 167.5,61.1667 167.5,54.5C 169.074,54.0629 170.241,53.0629 171,51.5C 176.445,42.2733 181.611,32.9399 186.5,23.5 Z"/></g>
<g><path style="opacity:1" fill="#9863c2" d="M 156.5,16.5 C 157.552,16.3505 158.552,16.5172 159.5,17C 158.418,18.3297 157.751,19.8297 157.5,21.5C 155.883,22.038 154.216,22.3713 152.5,22.5C 152.5,23.5 152.5,24.5 152.5,25.5C 154.5,25.1667 156.5,24.8333 158.5,24.5C 151.845,36.4728 145.179,48.4728 138.5,60.5C 135.138,60.9305 132.305,59.9305 130,57.5C 128.535,37.139 137.368,23.4723 156.5,16.5 Z"/></g>
<g><path style="opacity:1" fill="#eae8ee" d="M 146.5,26.5 C 147.552,26.3505 148.552,26.5172 149.5,27C 145.293,34.5817 140.96,42.0817 136.5,49.5C 135.366,45.3627 135.866,41.3627 138,37.5C 140.284,33.3862 143.117,29.7196 146.5,26.5 Z"/></g>
<g><path style="opacity:1" fill="#232225" d="M 168.5,28.5 C 175.423,34.2944 175.089,39.6277 167.5,44.5C 161.932,44.5937 158.932,41.9271 158.5,36.5C 165.625,38.3267 167.292,35.9934 163.5,29.5C 164.919,28.5489 166.585,28.2155 168.5,28.5 Z"/></g>
<g><path style="opacity:1" fill="#f3f2f6" d="M 163.5,29.5 C 167.292,35.9934 165.625,38.3267 158.5,36.5C 158.5,36.1667 158.5,35.8333 158.5,35.5C 158.019,31.6509 159.686,29.6509 163.5,29.5 Z"/></g>
<g><path style="opacity:1" fill="#3b87ce" d="M 195.5,32.5 C 200.932,39.9802 202.765,48.3135 201,57.5C 198.544,59.2105 195.877,60.5438 193,61.5C 191.885,69.6411 193.719,76.9745 198.5,83.5C 197.738,85.2624 196.404,86.2624 194.5,86.5C 191.13,77.8208 188.963,68.8208 188,59.5C 186.103,57.9837 183.936,57.317 181.5,57.5C 180.5,68.245 182,78.5783 186,88.5C 186.708,89.3805 187.542,90.0472 188.5,90.5C 187.329,91.3446 185.995,92.0113 184.5,92.5C 181.871,88.9052 180.037,84.9052 179,80.5C 178.5,73.8417 178.334,67.175 178.5,60.5C 184.167,51.1667 189.833,41.8333 195.5,32.5 Z"/></g>
<g><path style="opacity:1" fill="#746cc3" d="M 158.5,35.5 C 158.5,35.8333 158.5,36.1667 158.5,36.5C 158.932,41.9271 161.932,44.5937 167.5,44.5C 165.07,49.0366 162.403,53.3699 159.5,57.5C 159.516,55.5159 158.516,54.5159 156.5,54.5C 154.647,55.1887 153.481,56.522 153,58.5C 152.432,65.3393 151.099,72.006 149,78.5C 147.621,82.8482 145.787,86.8482 143.5,90.5C 141.973,90.573 140.973,89.9063 140.5,88.5C 146.517,79.1093 149.517,68.776 149.5,57.5C 148.167,57.5 146.833,57.5 145.5,57.5C 146.531,56.7515 147.698,56.0848 149,55.5C 153.056,49.0636 156.222,42.397 158.5,35.5 Z"/></g>
<g><path style="opacity:0.983" fill="#03102a" d="M 167.5,54.5 C 167.5,61.1667 167.5,67.8333 167.5,74.5C 168.719,81.7068 170.719,88.7068 173.5,95.5C 167.122,95.7054 160.789,95.3721 154.5,94.5C 157.292,86.9554 159.792,79.2887 162,71.5C 162.333,65.8333 162.667,60.1667 163,54.5C 164.616,53.1991 166.116,53.1991 167.5,54.5 Z"/></g>
<g><path style="opacity:0.991" fill="#05122c" d="M 159.5,57.5 C 158.555,70.0037 155.555,82.0037 150.5,93.5C 148.013,92.6772 145.679,91.6772 143.5,90.5C 145.787,86.8482 147.621,82.8482 149,78.5C 151.099,72.006 152.432,65.3393 153,58.5C 153.481,56.522 154.647,55.1887 156.5,54.5C 158.516,54.5159 159.516,55.5159 159.5,57.5 Z"/></g>
<g><path style="opacity:0.986" fill="#02102a" d="M 178.5,60.5 C 178.334,67.175 178.5,73.8417 179,80.5C 180.037,84.9052 181.871,88.9052 184.5,92.5C 181.888,93.3705 179.221,94.0372 176.5,94.5C 173.893,87.4048 172.56,80.0715 172.5,72.5C 172.5,66.8333 172.5,61.1667 172.5,55.5C 176.512,54.8874 178.512,56.5541 178.5,60.5 Z"/></g>
<g><path style="opacity:0.984" fill="#030e28" d="M 145.5,57.5 C 146.833,57.5 148.167,57.5 149.5,57.5C 149.517,68.776 146.517,79.1093 140.5,88.5C 137.669,87.9213 135.336,86.588 133.5,84.5C 140.47,77.7749 143.637,69.4415 143,59.5C 143.708,58.6195 144.542,57.9528 145.5,57.5 Z"/></g>
<g><path style="opacity:0.996" fill="#010f29" d="M 194.5,86.5 C 192.882,88.316 190.882,89.6493 188.5,90.5C 187.542,90.0472 186.708,89.3805 186,88.5C 182,78.5783 180.5,68.245 181.5,57.5C 183.936,57.317 186.103,57.9837 188,59.5C 188.963,68.8208 191.13,77.8208 194.5,86.5 Z"/></g>
<g><path style="opacity:1" fill="#4182cb" d="M 172.5,72.5 C 172.56,80.0715 173.893,87.4048 176.5,94.5C 175.609,95.1098 174.609,95.4431 173.5,95.5C 170.719,88.7068 168.719,81.7068 167.5,74.5C 168.892,72.7274 170.059,70.7274 171,68.5C 171.21,70.0581 171.71,71.3915 172.5,72.5 Z"/></g>
<g><path style="opacity:0.919" fill="#fefffe" d="M 38.5,102.5 C 41.8499,102.335 45.1832,102.502 48.5,103C 52.2815,104.827 56.2815,105.827 60.5,106C 64.1367,110.374 64.97,115.207 63,120.5C 58.0355,123.893 54.3689,122.893 52,117.5C 48.9015,113.034 44.7348,111.534 39.5,113C 35.1712,120.052 35.8379,126.718 41.5,133C 47.9888,136.585 54.1555,136.085 60,131.5C 61.7144,132.076 62.8811,133.243 63.5,135C 62.9077,138.032 61.5744,140.698 59.5,143C 46.4249,150.207 34.5915,148.707 24,138.5C 15.7472,121.328 20.5805,109.328 38.5,102.5 Z"/></g>
<g><path style="opacity:0.913" fill="#fefffe" d="M 185.5,102.5 C 196.179,103.787 206.846,103.787 217.5,102.5C 220.013,103.848 221.847,105.848 223,108.5C 228.803,104.473 235.137,103.14 242,104.5C 241.801,115.827 241.801,127.161 242,138.5C 243.064,140.269 244.231,141.936 245.5,143.5C 245.41,145.425 244.41,146.592 242.5,147C 236.32,148.022 230.32,147.522 224.5,145.5C 224.167,144.833 223.833,144.167 223.5,143.5C 225.161,141.512 226.328,139.179 227,136.5C 227.167,133.333 227.333,130.167 227.5,127C 227.706,122.477 227.039,118.144 225.5,114C 223.474,114.463 221.474,115.296 219.5,116.5C 217.056,115.233 214.723,113.733 212.5,112C 209.232,110.787 205.899,110.454 202.5,111C 201.549,114.057 201.216,117.223 201.5,120.5C 202.873,120.657 204.207,120.49 205.5,120C 206.479,117.863 207.812,116.029 209.5,114.5C 213.05,116.778 214.717,120.111 214.5,124.5C 214.493,128.043 213.493,131.21 211.5,134C 210.056,134.781 208.723,134.614 207.5,133.5C 207.29,129.62 205.29,127.953 201.5,128.5C 201.5,132.167 201.5,135.833 201.5,139.5C 205.605,139.496 207.105,141.496 206,145.5C 204.933,146.191 203.766,146.691 202.5,147C 196.167,147.667 189.833,147.667 183.5,147C 180.8,146.051 179.967,144.217 181,141.5C 182.57,140.386 183.903,139.053 185,137.5C 185.667,128.833 185.667,120.167 185,111.5C 183.64,109.895 182.14,108.395 180.5,107C 181.445,104.554 183.111,103.054 185.5,102.5 Z"/></g>
<g><path style="opacity:0.844" fill="#fefffe" d="M 253.5,103.5 C 256.978,103.184 260.312,103.684 263.5,105C 265.028,107.881 264.362,110.214 261.5,112C 257.16,113.95 252.827,114.283 248.5,113C 246.675,111.534 246.175,109.701 247,107.5C 249.013,105.752 251.18,104.418 253.5,103.5 Z"/></g>
<g><path style="opacity:0.905" fill="#fefffe" d="M 81.5,114.5 C 86.6169,114.568 91.1169,116.235 95,119.5C 96.2641,125.745 97.0975,132.078 97.5,138.5C 98.5,138.5 99.5,138.5 100.5,138.5C 99.2508,145.803 94.9174,148.636 87.5,147C 86.0692,146.535 84.9025,145.701 84,144.5C 79.1805,147.865 74.0139,148.365 68.5,146C 62.9702,139.56 63.9702,134.227 71.5,130C 75.0863,128.892 78.753,128.392 82.5,128.5C 82.6621,126.473 82.4955,124.473 82,122.5C 81.4387,121.978 80.772,121.645 80,121.5C 77.5515,122.944 75.3848,124.778 73.5,127C 66.0679,127.469 64.7345,124.803 69.5,119C 73.4324,116.972 77.4324,115.472 81.5,114.5 Z M 79.5,134.5 C 80.5,134.5 81.5,134.5 82.5,134.5C 82.8186,136.75 82.3186,138.75 81,140.5C 78.5213,138.912 78.0213,136.912 79.5,134.5 Z"/></g>
<g><path style="opacity:0.898" fill="#fefffe" d="M 160.5,114.5 C 166.332,114.224 171.165,116.224 175,120.5C 176.124,126.103 176.79,131.769 177,137.5C 179.969,139.371 180.303,141.704 178,144.5C 172.93,148.423 167.93,148.423 163,144.5C 159.319,147.36 155.152,148.193 150.5,147C 146.334,146.015 144.334,143.348 144.5,139C 145.097,133.069 148.43,129.736 154.5,129C 156.81,128.503 159.143,128.337 161.5,128.5C 161.662,126.473 161.495,124.473 161,122.5C 160.439,121.978 159.772,121.645 159,121.5C 156.728,123.212 154.561,125.046 152.5,127C 149.138,128.293 147.138,127.293 146.5,124C 146.99,121.497 148.323,119.497 150.5,118C 153.85,116.514 157.184,115.347 160.5,114.5 Z M 158.5,134.5 C 159.5,134.5 160.5,134.5 161.5,134.5C 161.819,136.75 161.319,138.75 160,140.5C 157.388,138.963 156.888,136.963 158.5,134.5 Z"/></g>
<g><path style="opacity:0.916" fill="#fefffe" d="M 112.5,115.5 C 117.118,114.309 119.618,115.975 120,120.5C 124.517,115.255 130.017,114.088 136.5,117C 138.317,118.8 139.484,120.966 140,123.5C 140.333,128.5 140.667,133.5 141,138.5C 143.071,140.455 143.738,142.788 143,145.5C 140.072,147.038 136.906,147.704 133.5,147.5C 130.375,147.565 127.375,147.065 124.5,146C 123.978,145.439 123.645,144.772 123.5,144C 126.611,138.426 127.111,132.593 125,126.5C 123.333,125.167 121.667,125.167 120,126.5C 119.255,133.037 119.589,139.371 121,145.5C 114.907,147.917 108.74,148.083 102.5,146C 101.017,143.427 101.517,141.26 104,139.5C 104.167,137.167 104.333,134.833 104.5,132.5C 104.761,128.006 103.928,124.006 102,120.5C 105.262,118.145 108.762,116.478 112.5,115.5 Z"/></g>
<g><path style="opacity:0.91" fill="#fefffe" d="M 256.5,115.5 C 259.167,115.5 261.833,115.5 264.5,115.5C 264.334,122.841 264.5,130.174 265,137.5C 266.613,142.215 269.28,143.215 273,140.5C 275.041,136.916 277.208,133.416 279.5,130C 276.473,125.639 272.806,121.973 268.5,119C 269.167,118.333 269.833,117.667 270.5,117C 277.057,115.414 283.724,115.08 290.5,116C 292.62,117.523 292.953,119.356 291.5,121.5C 292.511,125.223 293.845,125.223 295.5,121.5C 294.233,119.629 294.233,117.796 295.5,116C 298.833,115.333 302.167,115.333 305.5,116C 307.007,116.837 307.507,118.004 307,119.5C 302.584,122.083 299.417,125.75 297.5,130.5C 299.417,135.25 302.584,138.917 307,141.5C 307.667,142.833 307.667,144.167 307,145.5C 303.194,147.023 299.194,147.69 295,147.5C 292.167,147.333 289.333,147.167 286.5,147C 283.856,144.725 283.856,142.391 286.5,140C 286.046,138.378 285.046,137.212 283.5,136.5C 280.993,138.808 280.326,141.475 281.5,144.5C 281.182,145.647 280.516,146.481 279.5,147C 276.5,147.667 273.5,147.667 270.5,147C 269.333,146.5 268.5,145.667 268,144.5C 264.787,146.913 261.12,147.913 257,147.5C 253.742,147.507 250.575,147.007 247.5,146C 246.017,143.427 246.517,141.26 249,139.5C 249.667,134.833 249.667,130.167 249,125.5C 245.475,123.751 244.975,121.584 247.5,119C 250.662,117.973 253.662,116.806 256.5,115.5 Z"/></g>
</svg>
